<?xml version="1.0" standalone="no"?>
<!DOCTYPE svg PUBLIC "-//W3C//DTD SVG 20010904//EN"
 "http://www.w3.org/TR/2001/REC-SVG-20010904/DTD/svg10.dtd">
<svg version="1.0" xmlns="http://www.w3.org/2000/svg"
 width="1504.000000pt" height="1506.000000pt" viewBox="0 0 1504.000000 1506.000000"
 preserveAspectRatio="xMidYMid meet">

<g transform="translate(0.000000,1506.000000) scale(0.100000,-0.100000)"
fill="#000000" stroke="none">
<path d="M2 7528 l3 -7533 2 7513 3 7512 7510 0 7510 0 3 -7512 2 -7513 3
7533 2 7532 -7520 0 -7520 0 2 -7532z"/>
<path d="M7565 13385 c-129 -215 -132 -362 -12 -560 l42 -70 3 -299 c3 -338 3
-337 -70 -357 -59 -15 -167 -7 -204 17 -16 10 -66 52 -111 93 -45 41 -118 100
-162 131 -168 121 -438 182 -558 127 -27 -12 -168 -185 -159 -195 4 -3 62 -6
129 -6 l123 -1 74 45 c70 42 80 45 145 44 61 0 78 -4 128 -33 56 -32 267 -224
267 -242 0 -5 -14 -9 -31 -9 -53 0 -272 -55 -490 -124 -88 -27 -354 -138 -444
-184 -235 -121 -450 -250 -590 -355 -424 -318 -744 -678 -1023 -1148 -186
-315 -336 -673 -408 -978 -70 -299 -86 -412 -91 -678 -4 -192 -9 -253 -18
-253 -20 0 -133 149 -172 228 l-36 72 18 79 c33 145 6 260 -92 388 -51 68
-101 123 -112 123 -5 0 -12 -16 -15 -35 -4 -20 -16 -62 -26 -95 -60 -187 -24
-355 88 -423 77 -46 82 -52 97 -111 22 -85 49 -130 118 -197 l62 -60 -25 -20
c-45 -34 -94 -41 -299 -37 -226 4 -242 8 -401 105 -120 72 -159 83 -289 82
-109 -1 -262 -26 -268 -44 -2 -6 27 -25 65 -43 44 -22 92 -56 140 -103 102
-99 157 -122 287 -123 58 0 129 7 170 16 39 9 111 19 160 23 l90 7 -42 -22
c-45 -23 -103 -82 -103 -104 0 -19 73 -29 119 -16 43 11 57 25 96 93 17 29 36
49 51 53 38 10 39 -1 4 -50 -46 -68 -70 -147 -70 -234 0 -62 5 -85 30 -138 49
-102 114 -143 204 -130 73 11 118 76 86 126 -8 13 -12 12 -28 -6 -11 -11 -34
-26 -51 -34 -58 -24 -122 25 -151 114 -16 51 -8 150 17 207 51 113 177 178
262 134 32 -16 34 -20 56 -170 38 -248 116 -543 206 -778 27 -72 48 -131 47
-132 -14 -11 -51 -25 -66 -25 -28 0 -52 -32 -52 -72 0 -40 76 -203 108 -232
23 -20 37 -19 112 9 37 14 46 14 53 3 42 -74 177 -285 219 -341 179 -242 501
-571 748 -763 205 -160 486 -328 680 -408 36 -15 79 -33 95 -40 290 -127 761
-240 1085 -260 485 -31 805 -3 1205 104 416 112 802 300 1149 562 272 204 582
520 752 763 236 338 382 620 493 950 98 292 129 417 150 595 26 218 66 274
172 239 103 -35 174 -131 185 -249 8 -80 -7 -138 -45 -179 -25 -26 -36 -31
-78 -31 -29 0 -60 7 -78 18 -35 22 -55 18 -55 -9 0 -55 85 -107 155 -96 87 14
169 114 181 223 11 94 -31 235 -89 296 -31 33 -21 43 30 29 33 -9 40 -16 53
-58 22 -70 49 -85 145 -81 l80 3 -44 48 c-25 27 -61 57 -80 68 l-36 20 91 -6
c50 -3 106 -10 125 -15 75 -22 206 -32 270 -20 91 17 138 43 236 131 49 43
107 89 131 101 23 13 41 27 39 33 -6 19 -132 43 -233 44 -129 1 -199 -19 -314
-92 -144 -91 -149 -92 -425 -92 -239 0 -285 6 -285 37 0 5 25 37 55 70 55 59
114 166 134 245 9 33 17 43 39 48 36 7 97 66 125 119 34 63 31 211 -6 327 -15
48 -27 96 -27 108 0 35 -22 23 -71 -37 -145 -179 -178 -305 -124 -469 l18 -52
-43 -85 c-38 -78 -156 -226 -180 -226 -4 0 -10 98 -13 218 -5 202 -20 340 -57
536 -25 127 -106 421 -140 506 -10 25 -35 90 -56 145 -43 117 -162 369 -224
476 -278 480 -722 963 -1161 1262 -110 75 -310 197 -323 197 -2 0 -35 18 -73
39 -138 80 -470 212 -673 268 -133 36 -306 73 -346 73 -14 0 -24 6 -24 14 0
24 192 199 255 233 118 62 164 62 264 -1 73 -47 118 -56 250 -53 66 1 121 3
121 5 0 11 -148 160 -179 182 -31 21 -50 25 -132 28 -82 4 -110 0 -190 -23
-167 -47 -241 -90 -378 -219 -150 -140 -169 -150 -271 -143 -91 6 -117 20
-130 67 -5 19 -12 146 -16 281 -6 220 -5 252 11 300 10 30 21 59 25 64 5 6 24
42 44 81 68 137 69 259 1 396 -49 98 -115 198 -130 198 -8 0 -39 -43 -70 -95z
m470 -1466 c87 -9 348 -69 500 -116 101 -31 348 -134 483 -202 222 -111 440
-250 642 -409 110 -86 419 -394 532 -529 159 -191 367 -510 462 -708 87 -182
216 -537 266 -733 121 -479 111 -1121 -26 -1597 -84 -295 -161 -478 -318 -759
-36 -65 -66 -119 -66 -122 0 -11 -191 -274 -284 -391 -76 -96 -232 -253 -252
-253 -13 0 -14 13 -7 88 4 48 8 281 7 517 -1 394 -3 440 -23 552 -61 349 -238
608 -489 720 -87 39 -138 52 -250 68 -78 10 -120 22 -175 49 -100 49 -132 53
-197 25 -46 -20 -55 -21 -74 -9 -42 27 -92 48 -150 63 -32 9 -60 17 -61 19 -2
2 -10 25 -17 51 l-12 47 46 48 c40 40 51 60 71 131 23 78 27 86 63 104 68 36
248 107 270 107 12 0 37 11 56 23 19 13 47 27 63 31 104 26 138 150 68 250
-38 54 -71 65 -126 44 -23 -9 -58 -22 -77 -29 -48 -16 -70 -26 -105 -47 -49
-29 -114 -51 -121 -41 -3 5 0 42 6 81 14 94 6 158 -37 298 -35 113 -35 116
-23 192 7 42 9 93 6 115 -4 21 -1 68 8 107 12 60 12 76 0 125 -8 31 -19 60
-25 65 -5 6 -9 45 -9 87 0 90 -34 213 -76 275 -15 21 -37 57 -49 79 -56 99
-178 211 -266 245 l-54 21 0 74 c0 71 -1 75 -35 110 -43 45 -106 80 -156 89
-55 10 -74 16 -74 25 0 4 27 19 60 34 33 16 60 32 60 38 0 5 -9 17 -20 26 -26
23 -26 73 1 107 19 24 19 46 0 46 -12 0 -51 -94 -51 -120 0 -12 7 -28 15 -37
16 -16 12 -33 -9 -33 -7 0 -40 -11 -74 -24 -66 -26 -76 -23 -38 13 30 28 62
88 53 98 -5 4 -17 1 -28 -6 -25 -15 -36 -9 -14 9 8 7 15 18 15 24 0 6 30 42
65 80 36 38 65 76 65 84 0 18 -8 11 -109 -85 -35 -35 -66 -61 -68 -59 -3 2 3
25 11 50 9 26 16 69 16 96 0 45 -5 56 -62 131 -59 78 -108 124 -108 102 0 -6
15 -29 33 -52 19 -23 34 -48 35 -54 0 -7 4 -23 8 -36 6 -21 5 -22 -15 -12 -11
7 -21 18 -21 25 0 51 -78 164 -134 193 -45 23 -53 1 -11 -31 35 -27 70 -90 59
-108 -10 -16 -32 11 -38 48 -5 24 -15 39 -32 46 -13 6 -24 17 -24 23 0 22 -37
45 -102 64 -36 10 -78 27 -93 39 -36 28 -45 28 -45 -3 0 -17 12 -32 44 -55 25
-16 49 -30 54 -30 10 0 24 -41 17 -48 -2 -2 -28 12 -58 31 -36 23 -61 48 -73
74 -29 59 -51 55 -106 -20 -26 -35 -50 -76 -54 -90 -8 -34 -18 -41 -43 -28
-22 12 -51 -14 -51 -47 0 -11 -6 -25 -14 -29 -8 -4 -27 -32 -43 -62 -15 -29
-33 -63 -40 -74 -7 -12 -9 -33 -6 -46 4 -16 -2 -39 -18 -67 -22 -42 -22 -44
-5 -63 24 -26 34 -110 15 -122 -12 -7 -12 -9 1 -9 13 0 81 -112 80 -133 0 -5
10 -17 23 -28 22 -19 22 -19 3 -34 -32 -25 -80 -19 -115 14 -17 16 -31 36 -31
45 0 9 -7 16 -15 16 -26 0 -16 -31 26 -87 48 -61 109 -109 151 -118 23 -6 28
-11 22 -27 -6 -19 -3 -20 47 -13 l54 8 -47 -50 c-60 -65 -87 -120 -103 -210
-11 -64 -18 -78 -58 -123 -25 -28 -48 -64 -52 -80 -4 -16 -10 -32 -15 -35 -5
-3 -31 9 -59 26 -35 22 -51 39 -51 53 0 12 -7 30 -15 40 -33 44 -11 104 48
132 58 26 82 77 81 167 -1 93 -12 100 -65 38 -68 -79 -89 -126 -89 -198 0 -66
-15 -91 -27 -46 -16 58 -6 116 32 188 56 106 51 134 -66 353 -18 34 -36 62
-40 62 -10 0 -79 -193 -85 -242 -8 -59 12 -118 61 -180 19 -24 35 -52 35 -64
0 -11 9 -46 19 -77 11 -32 16 -57 10 -57 -13 0 -66 85 -80 129 -20 61 -47 108
-81 140 -37 34 -127 86 -135 77 -3 -3 2 -34 11 -70 9 -36 16 -78 16 -93 0 -55
57 -118 141 -157 53 -25 113 -79 143 -130 40 -68 36 -77 -28 -70 -77 9 -103 1
-111 -37 -6 -24 1 -47 29 -103 19 -39 47 -83 61 -98 15 -16 20 -28 13 -28 -7
0 -26 13 -41 30 -16 16 -61 46 -101 65 -78 39 -153 52 -231 41 l-47 -8 19 -21
c11 -12 36 -52 56 -88 56 -101 149 -179 215 -179 13 0 25 -7 28 -15 5 -12 9
-13 20 -4 8 7 17 9 21 6 10 -10 -18 -37 -38 -37 -30 0 -88 -58 -95 -95 -10
-57 30 -97 64 -63 19 19 27 -1 13 -35 -32 -78 -25 -131 22 -178 53 -53 160
-93 138 -51 -5 9 -19 57 -31 107 -23 94 -24 205 -1 228 8 8 11 8 11 -1 0 -7 9
-12 19 -12 17 0 18 -4 11 -30 -11 -38 1 -79 39 -139 37 -56 69 -88 96 -93 18
-3 21 -13 25 -98 5 -90 8 -101 59 -202 57 -115 61 -148 23 -194 -41 -49 -82
-55 -117 -18 -25 27 -25 27 -25 4 0 -98 149 -171 229 -112 40 29 40 12 1 -22
-39 -32 -93 -42 -145 -27 -82 25 -79 25 -93 -16 -25 -73 -25 -81 7 -150 33
-71 74 -121 126 -155 l30 -20 -29 7 c-59 13 -103 63 -143 165 l-22 55 0 -60
c-1 -109 82 -215 170 -215 27 0 38 -4 33 -11 -8 -13 -338 -176 -374 -184 -23
-5 -32 3 -88 80 l-63 86 -122 -7 c-139 -7 -188 -27 -227 -89 -21 -34 -37 -41
-127 -60 -40 -8 -106 -79 -148 -159 -36 -70 -65 -87 -158 -94 -37 -3 -70 -9
-73 -14 -3 -5 -9 -30 -12 -56 -7 -44 -9 -47 -39 -50 -22 -2 -33 -9 -37 -25 -6
-20 -7 -21 -17 -4 -6 11 -22 17 -46 17 -37 0 -38 -4 -18 -52 5 -13 0 -19 -21
-24 -25 -6 -33 -1 -83 57 -170 196 -270 250 -325 176 -18 -25 -21 -42 -20
-133 0 -92 -1 -104 -15 -98 -9 3 -42 8 -73 11 -98 10 -132 -17 -145 -114 -5
-35 -9 -43 -22 -37 -81 34 -174 22 -198 -26 -17 -33 -16 -92 1 -157 10 -37 11
-54 3 -62 -20 -20 -32 -11 -54 43 -20 49 -43 128 -143 486 -78 278 -101 472
-99 830 1 295 10 395 56 575 13 55 31 127 38 160 77 338 336 884 567 1197 208
281 514 594 763 780 365 273 797 491 1175 592 188 50 422 90 590 99 94 6 460
-3 565 -14z m-739 -364 c8 -20 -4 -65 -17 -65 -15 0 -22 27 -15 55 7 28 24 33
32 10z m229 -34 c3 -10 14 -26 25 -36 11 -10 20 -25 20 -34 0 -11 -12 -4 -35
21 -33 36 -45 68 -26 68 5 0 12 -8 16 -19z m-124 -60 c35 -16 107 -45 160 -65
102 -39 168 -86 196 -140 21 -40 22 -132 2 -170 l-16 -29 -5 67 c-9 113 -89
212 -179 223 l-44 5 40 -36 c22 -19 37 -36 33 -36 -16 0 -127 72 -173 114 -55
49 -59 48 -69 -25 -6 -39 -10 -46 -25 -42 -50 13 -151 -151 -154 -249 -1 -29
2 -69 6 -88 8 -33 8 -34 -7 -14 -23 32 -39 110 -33 164 8 65 35 116 103 191
30 35 64 84 76 111 11 26 22 48 23 48 2 0 31 -13 66 -29z m-162 -9 c11 -21 -2
-48 -18 -38 -14 9 -15 56 -1 56 5 0 14 -8 19 -18z m-69 -94 c0 -14 -27 -9 -40
7 -7 8 -9 23 -5 32 6 16 8 15 25 -7 11 -14 20 -28 20 -32z m-60 -43 c12 -14 5
-55 -9 -55 -4 0 -13 12 -20 26 -17 39 3 60 29 29z m736 -87 c-8 -58 -26 -108
-33 -90 -8 21 18 153 29 146 6 -4 8 -26 4 -56z m-334 -34 c68 -52 104 -100
120 -157 10 -40 9 -48 -8 -73 l-19 -29 -6 58 c-7 66 -30 104 -77 128 -18 9
-39 22 -47 29 -9 8 -15 9 -15 2 0 -6 -13 -19 -29 -28 -58 -34 -81 -143 -41
-194 23 -30 25 -41 6 -34 -8 3 -27 23 -41 45 -34 49 -30 89 20 194 19 40 35
81 35 92 0 28 11 35 30 21 10 -7 42 -32 72 -54z m-436 39 c15 -20 19 -83 6
-83 -16 0 -46 76 -36 91 8 13 15 11 30 -8z m-12 -135 c46 -108 56 -137 42
-132 -26 10 -69 84 -76 129 -9 58 9 60 34 3z m412 8 c3 -7 -4 -29 -15 -47 -12
-19 -21 -42 -21 -52 0 -11 -5 -15 -11 -11 -14 8 -4 90 12 110 15 18 28 18 35
0z m74 -26 c12 -22 5 -60 -11 -60 -10 0 -29 42 -29 66 0 21 28 17 40 -6z
m-500 -78 c0 -4 20 -30 45 -59 25 -28 45 -54 45 -58 0 -16 -58 31 -87 71 -37
49 -39 54 -18 54 8 0 15 -3 15 -8z m970 -159 c48 -19 70 -33 70 -44 0 -12 -6
-16 -22 -13 -13 2 -16 1 -8 -2 16 -8 33 -21 60 -48 15 -15 17 -22 7 -37 -8
-13 -13 -15 -16 -7 -2 7 -20 28 -40 45 -27 25 -45 33 -74 33 -33 0 -38 -3 -32
-19 5 -16 2 -18 -17 -14 -34 9 -53 43 -24 43 8 0 16 7 20 15 3 8 15 15 28 15
19 0 20 2 8 14 -8 8 -35 21 -60 30 l-45 15 38 1 c20 0 69 -12 107 -27z m-288
-11 c15 -15 0 -49 -25 -56 -12 -3 -38 -6 -57 -6 -19 0 -77 -11 -129 -25 -93
-25 -122 -25 -89 -1 10 7 15 16 11 19 -17 18 52 63 120 77 50 11 155 6 169 -8z
m-1020 -146 c-2 -26 1 -53 8 -61 6 -7 13 -26 15 -42 3 -21 -1 -17 -18 20 -12
26 -28 47 -36 47 -10 0 -12 9 -6 37 8 46 14 55 28 50 8 -2 11 -22 9 -51z m428
9 c-7 -8 -23 -15 -37 -15 -15 0 -22 -4 -17 -11 4 -7 21 -9 45 -5 41 7 50 -3
24 -24 -25 -21 -72 -14 -114 17 l-40 28 32 12 c18 6 52 12 76 12 37 1 42 -1
31 -14z m650 -18 c42 -14 42 -29 2 -41 -16 -4 -35 -19 -41 -33 -6 -13 -25 -29
-42 -35 -18 -6 -28 -16 -25 -23 10 -26 -72 -48 -189 -50 -61 -1 -120 -7 -132
-13 -12 -7 -32 -12 -45 -12 -13 -1 -40 -7 -60 -14 -21 -8 -38 -11 -38 -7 0 23
87 94 160 131 194 98 320 127 410 97z m271 -131 c45 -30 89 -109 89 -159 0
-42 -37 -115 -72 -140 -36 -27 -116 -34 -155 -13 -77 39 -133 114 -133 176 0
55 46 125 105 159 32 19 121 6 166 -23z m160 -30 c14 -7 37 -16 52 -20 15 -3
27 -11 27 -16 0 -6 11 -15 25 -20 14 -5 25 -14 25 -20 0 -5 7 -10 15 -10 17 0
20 -27 5 -50 -8 -12 -10 -10 -10 9 0 20 -2 21 -15 11 -13 -10 -15 -9 -15 10 0
15 -5 20 -14 17 -10 -4 -13 -1 -10 8 3 7 -4 23 -16 35 -21 21 -23 21 -41 4
-18 -16 -19 -16 -19 0 0 13 -5 16 -21 11 -18 -6 -20 -4 -14 14 6 19 4 21 -19
15 -16 -4 -26 -2 -26 5 0 15 39 14 71 -3z m-1673 -41 c7 -14 12 -34 12 -43 -1
-25 -40 24 -40 49 0 27 15 24 28 -6z m332 -51 c-18 -21 -24 -10 -9 18 8 14 14
18 17 10 2 -7 -2 -19 -8 -28z m1405 16 c3 -5 1 -10 -4 -10 -6 0 -11 5 -11 10
0 6 2 10 4 10 3 0 8 -4 11 -10z m-985 -7 c-8 -3 -34 -14 -57 -24 -23 -11 -48
-19 -55 -18 -10 0 -10 2 0 6 6 2 12 11 12 20 0 10 6 12 20 8 11 -3 28 -2 37 4
10 6 27 10 38 10 14 0 16 -2 5 -6z m325 -12 c-12 -12 -143 -61 -159 -60 -18 1
127 68 149 69 12 0 15 -3 10 -9z m119 -27 c10 -27 7 -44 -9 -44 -18 0 -30 24
-21 45 7 20 22 19 30 -1z m686 -36 c0 -3 -9 -4 -20 -1 -20 5 -26 23 -13 36 6
6 32 -21 33 -35z m-742 -10 c16 -16 15 -38 -2 -38 -13 0 -26 20 -26 41 0 13
14 11 28 -3z m654 -43 c109 -38 138 -52 138 -64 0 -11 -89 -2 -175 18 -68 16
-70 17 -73 49 -2 17 0 32 5 32 4 0 52 -16 105 -35z m-691 -7 c8 -29 -3 -54
-20 -44 -15 10 -15 79 1 74 7 -3 15 -16 19 -30z m-47 -32 c-3 -13 -1 -27 5
-31 12 -7 6 -25 -8 -25 -5 0 -16 12 -26 26 -16 24 -16 26 2 40 26 20 34 17 27
-10z m-42 -51 c13 -29 1 -49 -13 -22 -17 30 -30 19 -23 -18 7 -41 -7 -46 -26
-10 -12 22 -10 27 11 49 30 32 37 32 51 1z m218 -21 c0 -16 -34 -59 -104 -133
-87 -91 -279 -212 -309 -195 -6 4 -9 4 -5 -1 8 -8 -20 -32 -65 -55 -24 -12
-30 -12 -44 3 -15 15 -14 19 23 52 21 20 49 38 61 41 13 4 23 10 23 14 0 11
199 180 212 180 6 0 20 10 32 23 21 22 40 36 106 80 27 18 39 21 53 13 9 -6
17 -16 17 -22z m698 19 c-10 -2 -28 -2 -40 0 -13 2 -5 4 17 4 22 1 32 -1 23
-4z m-990 -65 c11 -39 5 -53 -14 -37 -16 13 -19 69 -4 69 5 0 13 -15 18 -32z
m402 5 c-1 -30 -128 -156 -215 -213 -37 -25 -40 -25 -42 -1 -2 21 22 35 39 25
6 -4 8 2 4 17 -3 13 -3 19 0 12 8 -18 32 -4 27 16 -5 18 21 36 36 27 4 -3 31
18 59 47 69 70 76 76 85 77 4 0 7 -3 7 -7z m367 1 c-3 -3 -12 -4 -19 -1 -8 3
-5 6 6 6 11 1 17 -2 13 -5z m101 -11 c-10 -2 -28 -2 -40 0 -13 2 -5 4 17 4 22
1 32 -1 23 -4z m-918 -35 c18 -23 18 -23 -8 -28 -22 -5 -27 -11 -25 -33 2 -29
-11 -37 -21 -11 -4 10 -13 13 -25 9 -23 -7 -38 12 -22 28 9 9 14 8 21 -3 8
-12 10 -10 10 8 0 13 6 22 15 22 8 0 15 7 15 15 0 22 19 18 40 -7z m993 15
c-7 -2 -19 -2 -25 0 -7 3 -2 5 12 5 14 0 19 -2 13 -5z m-247 -45 c7 -5 56 -22
110 -39 166 -52 216 -89 59 -43 -88 25 -162 58 -200 88 l-20 16 20 -7 c11 -3
25 -10 31 -15z m-1516 -31 c0 -8 13 -32 30 -55 16 -23 25 -44 20 -47 -15 -9
-28 2 -55 46 -28 44 -32 69 -10 69 8 0 15 -6 15 -13z m75 -7 c10 -11 15 -23
12 -27 -8 -7 -47 25 -47 39 0 14 16 9 35 -12z m155 -56 c9 -28 9 -37 -4 -49
-8 -8 -19 -15 -25 -15 -24 0 -37 60 -24 113 5 17 6 17 24 2 10 -10 23 -33 29
-51z m-72 32 c3 -12 -1 -17 -10 -14 -7 3 -15 13 -16 22 -3 12 1 17 10 14 7 -3
15 -13 16 -22z m522 -1 c0 -16 -27 -28 -35 -15 -3 4 -2 15 1 23 7 18 34 11 34
-8z m672 6 c-12 -34 -122 -158 -175 -199 -67 -51 -123 -79 -198 -98 -63 -16
-85 -15 -46 3 115 52 150 71 202 108 33 24 96 80 140 124 44 44 81 81 82 81 1
0 -1 -9 -5 -19z m-954 -38 c-2 -35 -7 -48 -18 -48 -8 0 -21 -4 -28 -9 -23 -14
-38 11 -19 32 9 10 17 28 17 39 0 21 12 31 38 32 9 1 12 -12 10 -46z m214 35
c-7 -7 -12 -25 -12 -40 0 -32 -15 -37 -29 -10 -12 23 11 62 37 62 12 0 13 -3
4 -12z m851 -18 c14 -11 42 -26 63 -32 32 -11 42 -23 70 -78 46 -91 74 -175
81 -245 5 -55 3 -63 -21 -92 -15 -17 -40 -34 -56 -38 -40 -9 -98 20 -127 64
-26 39 -66 158 -82 245 -6 33 -13 62 -16 64 -31 32 4 -215 44 -302 29 -64 75
-112 117 -122 65 -17 141 21 174 86 35 68 24 114 -66 294 -25 48 -44 92 -42
96 2 4 48 -7 103 -26 84 -28 106 -40 137 -75 34 -37 78 -130 78 -164 0 -8 -11
-17 -25 -20 -14 -3 -35 -7 -48 -10 -99 -20 -180 -181 -156 -309 11 -61 57
-182 117 -307 l38 -79 -20 -20 c-33 -30 -64 -37 -129 -28 -50 7 -65 5 -91 -10
-17 -10 -32 -28 -34 -40 -3 -21 1 -22 56 -22 61 0 122 -15 122 -31 0 -5 -4 -9
-10 -9 -5 0 -26 -12 -47 -26 -64 -44 -168 -93 -240 -113 -38 -10 -91 -30 -118
-43 -28 -14 -71 -28 -96 -32 -44 -6 -50 -4 -120 43 -91 62 -162 126 -182 166
-8 17 -27 43 -41 58 -14 15 -26 32 -26 38 0 5 -4 17 -9 27 -32 61 -40 92 -36
149 9 134 64 275 173 436 31 47 23 59 -12 17 -25 -30 -46 -33 -46 -6 0 27 209
224 240 226 15 1 118 117 174 195 16 22 32 42 36 45 4 3 12 15 19 28 14 27 21
27 54 2z m-1390 -4 c3 -8 3 -17 0 -20 -7 -7 -33 13 -33 25 0 15 27 10 33 -5z
m427 -37 c0 -11 -6 -19 -14 -19 -20 0 -26 12 -19 38 4 18 8 20 19 11 8 -6 14
-20 14 -30z m40 -14 c0 -14 -4 -25 -9 -25 -5 0 -11 11 -13 25 -4 17 -1 25 8
25 8 0 14 -11 14 -25z m-714 -56 c10 -18 -13 -32 -40 -25 -37 9 -34 36 3 36
17 0 33 -5 37 -11z m458 -9 c31 -11 35 -40 5 -40 -11 0 -29 -5 -39 -10 -15 -8
-24 -6 -40 7 -28 24 -25 41 8 46 15 2 30 5 34 6 4 0 18 -3 32 -9z m156 -14 c0
-24 -21 -36 -68 -36 -31 0 -26 30 8 47 40 20 60 16 60 -11z m-266 -51 c28 -26
29 -29 20 -62 -8 -28 -31 -33 -66 -16 -30 14 -32 22 -22 72 8 38 31 41 68 6z
m591 -1 c-33 -13 -68 -29 -77 -34 -10 -6 -23 -10 -30 -10 -21 1 125 69 147 69
11 0 -7 -11 -40 -25z m-298 -20 c7 -20 -23 -51 -59 -59 -25 -6 -28 -5 -28 19
0 15 6 26 14 26 7 0 19 7 26 15 16 20 39 19 47 -1z m-137 -9 c26 -32 -13 -81
-47 -59 -35 22 -23 74 17 74 10 0 23 -7 30 -15z m-354 -14 c-9 -13 -83 -24
-98 -14 -8 5 7 10 42 14 30 3 56 6 58 7 2 1 1 -2 -2 -7z m626 -103 c17 -18 22
-30 15 -33 -41 -12 -69 -14 -92 -5 l-26 10 6 -44 c8 -54 -5 -65 -45 -36 -19
14 -30 30 -30 46 0 24 1 24 25 8 31 -20 32 -6 4 30 -24 31 -18 46 12 28 11 -7
41 -15 67 -18 l47 -6 -25 21 c-14 11 -29 21 -35 21 -5 0 -4 4 4 9 19 12 41 3
73 -31z m-378 -7 c10 -16 -5 -41 -25 -41 -26 0 -49 48 -29 60 14 9 44 -2 54
-19z m136 11 c0 -10 -9 -28 -20 -39 -16 -18 -17 -22 -5 -27 25 -9 17 -36 -10
-36 -14 0 -34 -5 -45 -12 -22 -14 -29 -10 -32 21 -2 18 6 29 34 45 21 11 45
31 53 44 19 27 25 28 25 4z m-218 -44 c6 -16 -23 -66 -40 -73 -28 -11 -32 8
-10 46 22 39 43 50 50 27z m-228 -52 c-21 -15 -30 -14 -19 3 3 6 14 11 23 11
13 0 13 -2 -4 -14z m36 -13 c-1 -13 -40 -56 -45 -51 -3 3 4 17 16 31 21 27 29
33 29 20z m245 -23 c9 -15 -14 -40 -36 -40 -21 0 -25 20 -7 38 15 15 35 15 43
2z m215 -34 c0 -7 -7 -19 -15 -26 -19 -16 -41 1 -32 24 8 20 47 21 47 2z
m1530 -53 c0 -57 -15 -80 -57 -86 -21 -4 -49 -4 -61 0 -21 5 -23 10 -18 37 8
39 51 84 91 95 35 9 45 0 45 -46z m-990 20 c-1 -11 -37 -53 -45 -53 -3 0 2 14
12 30 16 28 33 40 33 23z m-1003 -25 c-3 -8 -6 -5 -6 6 -1 11 2 17 5 13 3 -3
4 -12 1 -19z m253 -18 c0 -21 -15 -27 -25 -10 -7 12 2 30 16 30 5 0 9 -9 9
-20z m146 -17 c-11 -11 -19 6 -11 24 8 17 8 17 12 0 3 -10 2 -21 -1 -24z m112
16 c7 -37 -66 -88 -91 -63 -9 10 4 34 19 34 8 0 14 6 14 13 0 34 52 48 58 16z
m-469 -134 c5 -19 6 -35 2 -35 -20 0 -76 93 -66 110 9 15 53 -37 64 -75z m206
76 c3 -5 1 -12 -5 -16 -5 -3 -10 1 -10 9 0 18 6 21 15 7z m265 -26 c-7 -8 -16
-15 -21 -15 -5 0 -6 7 -3 15 4 8 13 15 21 15 13 0 13 -3 3 -15z m-34 -40 c17
-26 16 -56 -3 -62 -13 -5 -43 46 -43 72 0 23 28 18 46 -10z m1369 5 c3 -5 -1
-10 -9 -10 -9 0 -16 5 -16 10 0 6 4 10 9 10 6 0 13 -4 16 -10z m191 -91 c8
-30 18 -96 21 -147 5 -75 2 -104 -13 -151 -18 -58 -18 -58 -84 -83 -36 -14
-76 -29 -90 -33 l-25 -7 26 28 c60 65 64 118 18 219 -34 76 -73 194 -66 202 3
2 36 6 73 9 37 2 77 10 88 18 27 18 34 11 52 -55z m-1417 -79 c20 -12 47 -38
61 -58 24 -36 42 -72 36 -72 -1 0 -25 23 -53 50 -38 37 -58 50 -80 50 -43 0
-68 -32 -67 -86 1 -42 5 -49 92 -134 50 -50 98 -90 108 -90 28 0 54 30 54 62
0 37 14 29 40 -22 24 -48 25 -88 3 -134 -17 -38 -64 -67 -93 -59 -30 8 -60 42
-60 69 0 17 -26 55 -83 120 -104 117 -131 169 -124 232 9 85 85 117 166 72z
m1876 -180 c8 -16 15 -41 15 -56 0 -22 -2 -24 -15 -14 -8 6 -19 9 -26 5 -12
-8 -58 41 -59 62 0 14 28 32 52 33 10 0 24 -13 33 -30z m-117 -37 c10 -16 22
-36 25 -45 7 -20 -1 -48 -13 -48 -13 0 -71 100 -65 111 11 17 33 9 53 -18z
m-95 -40 c8 -10 18 -34 22 -54 6 -34 4 -38 -24 -52 -17 -8 -48 -18 -71 -22
-22 -4 -42 -11 -46 -16 -3 -5 -13 -9 -22 -9 -9 0 -30 -7 -46 -15 -32 -17 -50
-19 -42 -6 8 12 -48 0 -56 -13 -7 -11 -13 -12 -53 -15 -16 -1 -17 -3 -6 -10
19 -12 6 -41 -17 -41 -11 0 -46 -12 -78 -26 -80 -35 -200 -74 -227 -73 -20 0
-85 64 -76 74 3 2 115 47 249 100 135 53 295 118 355 145 61 26 113 49 116 49
3 1 13 -7 22 -16z m-1208 -219 c28 -24 71 -59 97 -76 27 -17 46 -33 45 -35 -6
-6 -71 30 -97 54 -14 13 -28 23 -32 23 -9 0 -89 85 -102 109 -6 9 1 7 15 -7
13 -12 47 -43 74 -68z m434 -100 c24 -31 28 -64 7 -64 -8 0 -27 16 -42 36 -23
29 -25 37 -13 45 21 13 26 11 48 -17z m-690 -23 c31 -29 35 -42 31 -91 -4 -56
-95 -116 -157 -104 -58 11 -83 39 -83 93 0 53 17 84 64 112 48 29 107 25 145
-10z m615 -31 c9 -22 16 -42 16 -44 0 -2 -39 -20 -87 -41 -49 -20 -102 -43
-120 -51 -17 -8 -36 -14 -42 -14 -6 0 -19 -4 -29 -10 -29 -16 -110 -50 -120
-50 -5 0 -31 -9 -58 -21 -27 -11 -58 -24 -69 -28 -11 -5 -37 -16 -58 -25 -21
-9 -43 -16 -51 -16 -18 0 -59 47 -52 59 8 13 72 42 201 91 126 48 315 129 380
163 28 14 55 26 61 27 7 0 19 -18 28 -40z m513 -50 c-12 -90 -74 -131 -207
-137 l-85 -4 55 32 c30 18 73 46 95 64 44 35 125 85 139 85 5 0 6 -18 3 -40z
m-612 -80 c-28 -12 -37 -12 -30 0 3 6 16 10 28 9 21 0 21 -1 2 -9z m-58 -26
c-3 -3 -12 -4 -19 -1 -8 3 -5 6 6 6 11 1 17 -2 13 -5z m-67 -24 c0 -5 -8 -10
-17 -10 -15 0 -16 2 -3 10 19 12 20 12 20 0z m-80 -30 c0 -5 -5 -10 -11 -10
-5 0 -7 5 -4 10 3 6 8 10 11 10 2 0 4 -4 4 -10z m-404 -58 c20 -13 44 -70 44
-104 l0 -33 -19 31 c-10 17 -31 40 -45 51 -43 34 -25 85 20 55z m-73 -66 c9
-7 17 -25 17 -40 0 -18 -6 -26 -17 -27 -17 -1 -17 -2 0 -6 25 -7 21 -22 -10
-29 -15 -4 -38 -13 -52 -20 -14 -8 -29 -14 -33 -14 -3 0 -50 -21 -105 -46
-150 -70 -154 -72 -213 -93 -57 -20 -85 -22 -110 -6 -8 5 -28 16 -44 25 -42
21 -42 34 1 49 21 7 90 38 153 68 217 104 333 151 370 152 14 0 33 -6 43 -13z
m1357 -65 c0 -21 -17 -31 -37 -23 -28 10 -11 39 25 41 6 1 12 -8 12 -18z
m-2088 -111 c37 -47 113 -148 169 -225 217 -297 261 -354 304 -394 25 -23 49
-41 55 -41 18 0 10 -47 -17 -100 -23 -44 -30 -51 -51 -47 -18 3 -26 -1 -32
-19 -6 -15 -18 -24 -30 -24 -14 0 -21 -6 -19 -17 3 -31 0 -34 -21 -23 -20 11
-30 -3 -10 -15 24 -15 8 -27 -27 -22 -28 5 -34 4 -20 -4 9 -5 17 -15 17 -21 0
-17 -52 -2 -109 31 -28 17 -51 27 -51 22 0 -5 25 -21 55 -37 54 -29 69 -44 41
-44 -8 0 -44 14 -81 30 -37 17 -75 30 -85 30 -20 0 -109 58 -159 104 -69 64
-187 239 -142 212 5 -4 5 6 -1 21 -10 27 -13 28 -97 30 -219 4 -580 71 -595
110 -8 20 5 34 30 33 51 -1 289 -20 364 -29 107 -12 238 2 288 30 30 16 32 19
12 15 -16 -3 -44 4 -75 19 -26 14 -56 25 -64 25 -9 0 -39 9 -67 19 -59 23
-127 26 -236 10 -92 -13 -188 -5 -188 17 0 10 12 14 38 14 79 0 163 21 227 56
l65 36 73 -30 c72 -30 107 -38 226 -47 73 -6 161 3 161 17 0 4 -11 13 -25 18
-14 5 -80 35 -148 67 -119 56 -124 57 -217 60 -52 1 -96 6 -98 11 -7 21 30 40
87 47 33 4 65 13 72 21 17 20 24 19 151 -36 64 -27 121 -50 127 -50 7 0 29 -9
51 -20 71 -36 71 -34 -22 112 -35 54 -50 59 -154 57 -82 -2 -105 8 -77 33 26
23 47 26 147 25 l90 -2 68 -85z m2175 34 c10 -26 -28 -43 -56 -25 -12 8 -12
12 -2 25 17 21 50 20 58 0z m239 -9 c4 -9 -9 -34 -32 -61 -59 -70 -98 -127
-184 -270 -111 -185 -149 -264 -186 -384 -39 -125 -46 -91 -10 46 24 92 94
248 138 306 41 55 92 144 74 129 -63 -52 -376 -579 -411 -691 -4 -13 -23 -57
-41 -97 -37 -79 -64 -97 -64 -42 0 25 -3 29 -13 20 -8 -6 -17 -7 -22 -3 -4 4
-4 -4 0 -17 6 -19 4 -23 -8 -18 -8 3 -19 1 -25 -5 -6 -6 -15 -7 -20 -4 -7 4 3
33 23 74 19 37 63 126 98 197 147 303 378 657 484 742 27 21 50 40 53 43 43
46 134 67 146 35z m-354 -30 c10 -11 -8 -70 -22 -73 -17 -3 -45 52 -35 68 6
10 48 14 57 5z m-908 -30 c11 -8 36 -16 55 -16 24 -1 28 -3 14 -6 -32 -6 -29
-21 5 -25 23 -3 21 -5 -18 -15 -30 -7 -37 -11 -20 -12 14 -1 31 -10 38 -21 7
-11 23 -20 36 -20 42 0 40 -20 -1 -21 -33 -1 -34 -2 -13 -8 16 -5 24 -13 22
-24 -3 -20 33 -37 86 -38 l37 -1 -45 -11 -45 -10 35 -10 c73 -19 78 -24 35
-32 -75 -14 -73 -24 5 -25 64 -1 73 -3 58 -14 -10 -7 -15 -16 -12 -19 11 -11
-66 -19 -114 -12 -99 14 -174 71 -215 164 -31 70 -13 190 28 190 6 0 19 -6 29
-14z m1434 2 c9 -10 5 -17 -17 -30 -60 -35 -194 -190 -344 -397 l-18 -25 6 30
c9 41 96 217 145 292 23 34 62 80 87 103 38 33 53 40 88 40 23 0 47 -6 53 -13z
m208 -38 c54 -14 56 -25 6 -33 -21 -3 -60 -17 -87 -31 -52 -28 -135 -93 -135
-106 0 -4 29 5 64 22 81 38 190 69 241 69 48 -1 101 -24 147 -66 54 -48 53
-50 -17 -46 -40 3 -92 -2 -137 -13 -105 -25 -114 -34 -37 -35 90 0 165 -26
246 -85 52 -37 55 -49 7 -29 -20 8 -39 13 -41 10 -3 -3 7 -10 22 -16 39 -15
83 -48 96 -72 12 -23 6 -21 -46 18 -92 67 -194 92 -300 73 -33 -6 -84 -16
-112 -21 -29 -5 -59 -15 -65 -21 -7 -7 -34 -22 -59 -34 -146 -68 -261 -170
-360 -316 -53 -79 -59 -85 -59 -58 0 16 5 33 10 36 6 3 10 13 10 21 0 22 68
177 108 249 19 33 52 96 74 140 75 148 182 272 276 323 63 35 82 37 148 21z
m-2036 -6 c0 -5 -48 -37 -106 -73 -129 -79 -202 -143 -235 -204 -13 -25 -27
-46 -30 -46 -9 0 -99 133 -99 146 0 11 64 42 120 59 13 4 56 24 95 43 123 62
255 101 255 75z m1235 -42 c9 -30 -5 -72 -23 -69 -22 4 -38 68 -20 79 21 14
36 10 43 -10z m-1042 -18 c-9 -61 -14 -73 -28 -73 -17 0 -20 16 -6 24 5 3 7
15 4 26 -7 26 3 50 20 50 10 0 13 -9 10 -27z m-129 -52 c-10 -11 -22 -21 -26
-21 -14 0 -9 23 9 42 23 26 40 6 17 -21z m1088 -38 c10 -9 18 -27 18 -40 0
-18 -5 -23 -25 -23 -32 0 -55 41 -35 65 16 19 19 19 42 -2z m-1216 -20 c-38
-131 -39 -138 -32 -255 6 -112 0 -141 -21 -104 -4 7 -23 21 -40 30 -26 13 -33
23 -33 46 0 36 -17 40 -26 5 -6 -23 -8 -24 -33 -11 -14 8 -35 24 -45 35 -19
21 -19 23 -2 58 28 60 92 129 159 173 69 44 81 48 73 23z m415 -43 c61 -77
157 -115 314 -122 l50 -3 -35 -22 c-19 -13 -46 -23 -59 -23 -28 0 -19 -14 14
-24 11 -3 -11 -3 -50 0 -58 4 -68 3 -57 -8 9 -9 51 -13 152 -13 l139 0 -6 -25
c-7 -29 -21 -50 -34 -50 -11 0 -40 -30 -55 -56 -6 -10 -23 -20 -38 -22 -22 -3
-26 -8 -26 -34 0 -27 -3 -30 -22 -24 -45 14 -53 11 -63 -21 -11 -39 -31 -42
-47 -8 -14 30 -24 32 -38 5 -14 -25 -36 -16 -49 21 -8 23 -16 29 -39 29 -20 0
-35 8 -46 24 -11 18 -21 23 -37 19 -18 -5 -21 -3 -16 10 4 10 10 24 13 32 4
10 0 15 -15 15 -14 0 -19 5 -15 15 4 8 1 15 -6 15 -8 0 -10 9 -6 24 4 15 1 28
-6 33 -13 8 -17 28 -17 93 -1 64 0 70 15 70 11 0 13 6 9 20 -4 11 -2 20 4 20
6 0 8 12 4 31 -5 26 -3 30 13 27 10 -2 35 -23 55 -48z m-303 23 c2 -9 -7 -13
-27 -13 -30 0 -39 9 -24 24 11 10 46 3 51 -11z m-2151 -35 c57 -53 163 -175
163 -188 0 -21 -23 -7 -91 55 -73 67 -109 82 -109 44 0 -11 5 -30 12 -42 17
-32 26 -83 18 -97 -13 -21 -72 119 -78 182 -8 101 12 112 85 46z m2270 8 c-7
-16 -52 -22 -61 -8 -7 12 7 29 29 34 25 6 39 -6 32 -26z m933 -66 c0 -27 -10
-30 -41 -14 -33 16 -37 38 -12 53 21 11 53 -12 53 -39z m-1065 19 c9 -14 4
-18 -33 -25 -25 -5 -32 -3 -32 9 0 24 52 37 65 16z m125 -54 c0 -20 -5 -25
-25 -25 -18 0 -25 5 -25 18 0 10 3 22 7 25 3 4 15 7 25 7 13 0 18 -7 18 -25z
m-120 -44 c0 -12 -8 -16 -42 -25 -24 -5 -28 -3 -28 14 0 16 7 20 35 20 19 0
35 -4 35 -9z m982 -8 c22 -20 23 -36 3 -53 -13 -10 -19 -10 -35 5 -30 27 -25
58 9 64 3 1 13 -6 23 -16z m-117 -13 c3 -5 -1 -10 -9 -10 -9 0 -16 5 -16 10 0
6 4 10 9 10 6 0 13 -4 16 -10z m1316 -24 c66 -33 119 -68 119 -79 0 -5 -4 -5
-10 -2 -21 13 -6 -14 57 -105 17 -25 17 -25 -2 -10 -11 8 -26 21 -33 28 -7 6
-19 12 -25 12 -7 0 -4 -5 5 -11 27 -15 144 -198 162 -253 28 -84 28 -85 -97
55 -26 29 -45 59 -42 67 2 7 1 11 -4 7 -5 -3 -11 -2 -13 2 -1 5 -30 26 -63 48
-33 22 -62 43 -63 48 -2 4 -8 4 -13 1 -6 -3 -15 -1 -22 4 -20 16 -153 33 -214
27 -32 -4 -78 -12 -103 -18 -45 -12 -45 -12 55 -18 88 -4 109 -9 175 -41 82
-40 188 -134 140 -124 -14 3 -48 7 -77 11 -28 3 -68 12 -87 20 -20 9 -76 18
-126 22 -49 3 -90 10 -90 15 0 8 -93 5 -120 -5 -8 -2 -42 -10 -75 -17 -33 -7
-74 -24 -93 -38 -18 -13 -35 -22 -38 -19 -12 12 52 111 115 179 75 81 161 145
251 186 83 38 98 41 196 37 64 -2 93 -8 135 -29z m-2043 -33 c-2 -20 -9 -29
-24 -31 -28 -4 -40 34 -16 48 30 17 44 12 40 -17z m-1915 -15 c34 -75 37 -71
-75 -113 -57 -21 -141 -53 -187 -72 -46 -19 -90 -32 -98 -29 -7 3 -21 2 -31
-3 -9 -5 -35 -14 -57 -20 -22 -7 -49 -16 -60 -21 -123 -53 -121 -53 -150 -19
-30 36 -27 44 23 59 35 11 255 102 492 203 58 25 110 45 116 46 7 1 18 -14 27
-31z m-567 11 c41 -11 79 -43 69 -59 -5 -8 -79 2 -143 19 -31 9 -42 17 -42 31
0 16 7 20 36 20 19 0 55 -5 80 -11z m3198 -11 c15 -24 -10 -51 -35 -37 -21 11
-26 45 -6 52 17 8 29 3 41 -15z m-854 -33 c0 -28 -4 -35 -20 -35 -15 0 -20 7
-20 28 0 32 7 42 27 42 8 0 13 -12 13 -35z m924 -11 c9 -3 16 -15 16 -25 0
-23 -32 -25 -51 -3 -10 13 -10 17 2 25 17 11 14 10 33 3z m-754 -39 c15 -18 5
-35 -21 -35 -24 0 -37 29 -18 41 19 12 25 11 39 -6z m-1460 -15 c95 -12 95
-12 137 -58 23 -25 56 -72 73 -104 18 -33 55 -89 82 -125 34 -44 48 -70 42
-78 -5 -7 -18 -25 -29 -41 -10 -16 -36 -50 -57 -76 -21 -25 -49 -71 -63 -101
-13 -30 -48 -82 -77 -115 -54 -60 -98 -135 -186 -314 -41 -84 -52 -99 -80
-109 -18 -6 -43 -8 -55 -5 -12 3 -43 -2 -68 -11 -58 -20 -92 -12 -136 32 l-33
33 6 85 c6 80 5 88 -19 130 -14 24 -33 49 -41 57 -21 16 -20 47 1 101 13 34
17 79 17 204 1 181 5 191 89 248 64 43 77 58 77 88 0 20 -11 37 -37 59 -25 21
-33 34 -25 37 7 3 39 23 70 44 57 40 57 40 137 35 44 -2 123 -10 175 -16z
m2078 3 c13 -26 4 -43 -24 -43 -26 0 -40 20 -30 45 8 21 43 19 54 -2z m-3336
-9 c94 -32 49 -62 -72 -48 -66 7 -90 24 -70 49 16 20 84 19 142 -1z m2389 -45
c19 -14 29 -29 29 -47 0 -31 -67 -145 -120 -205 -37 -41 -61 -47 -42 -10 21
41 73 183 85 232 6 28 13 51 15 51 2 0 17 -9 33 -21z m197 -11 c28 -28 21 -37
-257 -357 -68 -78 -125 -140 -128 -137 -3 3 30 53 73 112 44 59 101 136 127
171 26 36 62 93 78 127 47 93 75 116 107 84z m176 -3 c8 -22 -4 -45 -24 -45
-20 0 -36 33 -25 50 9 15 42 12 49 -5z m660 -18 c7 -11 7 -20 0 -27 -15 -15
-44 -2 -44 19 0 35 25 39 44 8z m-176 -30 c4 -20 -25 -34 -40 -19 -15 15 -1
44 19 40 10 -2 19 -11 21 -21z m-3353 -7 c-3 -5 -10 -10 -16 -10 -5 0 -9 5 -9
10 0 6 7 10 16 10 8 0 12 -4 9 -10z m2933 -12 c14 -14 15 -37 3 -57 -13 -20
-41 3 -41 34 0 34 16 45 38 23z m-1970 -28 c2 -10 -20 -27 -64 -50 -54 -28
-72 -44 -91 -79 -22 -42 -23 -51 -17 -170 5 -110 3 -137 -16 -210 -12 -47 -28
-98 -37 -115 -19 -39 -73 -96 -90 -96 -7 0 -13 -4 -13 -10 0 -5 -20 -10 -44
-10 -33 0 -52 7 -76 26 -98 83 -97 244 4 346 20 21 50 45 65 53 28 14 30 13
46 -12 10 -14 20 -43 22 -65 5 -37 7 -38 24 -22 17 15 19 33 19 143 0 125 0
128 33 181 41 69 116 113 186 108 32 -2 47 -8 49 -18z m2280 3 c-5 -26 -38
-29 -38 -4 0 15 6 21 21 21 14 0 19 -5 17 -17z m216 -9 c11 -28 6 -44 -11 -44
-31 0 -46 16 -38 39 7 25 40 28 49 5z m-3286 -11 c13 -26 24 -103 14 -103 -13
0 -83 100 -77 110 10 17 54 11 63 -7z m2861 -17 c16 -20 3 -46 -24 -46 -24 0
-42 30 -30 50 9 14 41 12 54 -4z m266 -6 c7 -11 -12 -40 -25 -40 -11 0 -21 30
-14 41 7 12 31 11 39 -1z m-3229 -15 c4 -8 14 -15 23 -15 14 -1 13 -2 -2 -11
-15 -9 -17 -18 -12 -48 6 -37 6 -37 -47 -59 -161 -65 -315 -109 -331 -93 -6 6
-8 11 -4 11 4 0 -1 10 -13 22 -11 12 -20 27 -20 34 0 6 53 33 118 59 64 26
144 60 177 75 97 45 103 46 111 25z m1737 -16 c4 -16 3 -18 -9 -8 -16 13 -19
29 -5 29 5 0 11 -9 14 -21z m1336 7 c18 -22 2 -46 -30 -46 -21 0 -29 5 -29 18
0 36 37 54 59 28z m1556 -5 c39 -10 83 -24 98 -30 52 -21 124 -74 142 -105
l18 -31 -34 31 c-69 62 -209 104 -350 104 -85 0 -105 -13 -38 -24 100 -16 221
-87 310 -183 50 -53 86 -113 69 -113 -5 0 -10 6 -10 13 0 15 -38 40 -50 32 -5
-3 -27 6 -49 19 -22 14 -43 21 -46 16 -3 -5 -20 -3 -40 6 -42 17 -48 18 -39 2
8 -13 -14 -9 -121 22 -124 36 -192 48 -227 40 l-33 -7 30 -12 c74 -31 160 -77
203 -109 65 -49 149 -146 163 -190 6 -20 16 -40 21 -43 8 -5 48 -106 48 -123
0 -4 -7 -3 -15 4 -8 7 -15 19 -15 27 0 23 -108 152 -150 178 -21 13 -41 29
-45 35 -14 22 -192 126 -201 117 -2 -2 13 -12 33 -23 21 -10 44 -25 51 -31 25
-24 -8 -14 -76 23 -68 38 -226 83 -291 85 -20 0 -45 4 -55 8 -17 6 -13 12 30
41 166 115 244 165 284 183 129 57 265 70 385 38z m-1865 -56 c117 -51 188
-77 385 -146 219 -77 436 -169 503 -214 62 -42 151 -131 194 -193 40 -58 99
-186 139 -302 28 -82 33 -110 35 -210 3 -108 2 -111 -6 -44 -11 87 -55 218
-110 325 -42 83 -109 183 -117 175 -3 -2 5 -26 16 -51 27 -62 27 -64 -9 -30
-16 16 -30 24 -30 17 0 -6 4 -14 10 -17 5 -3 24 -27 42 -53 l32 -47 -44 32
c-24 18 -46 30 -49 28 -2 -3 17 -28 44 -55 27 -28 46 -50 43 -50 -4 0 -37 21
-73 46 -85 60 -107 52 -27 -10 34 -26 62 -51 62 -55 0 -5 -35 10 -77 32 -42
22 -97 46 -122 53 l-46 14 25 -20 c14 -11 32 -20 41 -20 18 0 73 -40 66 -47
-3 -2 -24 5 -48 16 -63 29 -269 111 -280 111 -18 0 -8 -19 14 -26 12 -4 58
-24 102 -45 44 -21 93 -43 109 -49 16 -6 26 -13 24 -16 -5 -4 -85 23 -133 46
-40 19 -75 29 -75 22 0 -4 27 -19 61 -34 35 -16 58 -32 54 -37 -3 -7 0 -8 9
-5 8 3 31 -2 52 -12 31 -15 34 -19 18 -24 -10 -4 -21 -4 -24 -1 -3 4 -39 20
-80 36 -158 63 -511 265 -599 344 -13 11 -29 21 -36 21 -17 0 -71 48 -63 56 4
3 20 -3 36 -15 33 -23 42 -26 42 -12 0 8 -17 20 -100 71 -99 62 -130 83 -130
89 0 4 -33 28 -74 55 -82 52 -105 74 -90 84 5 4 15 19 21 33 6 15 25 42 40 60
16 19 44 55 62 81 36 53 20 54 161 -7z m551 -4 c-14 -24 -41 -28 -41 -5 0 8 5
25 11 36 10 18 13 19 26 5 12 -11 13 -19 4 -36z m-1459 -20 c41 -19 96 -42
128 -54 8 -4 -3 -4 -25 0 -33 5 -148 53 -164 69 -11 10 22 2 61 -15z m1418
-46 c0 -21 -17 -27 -51 -20 l-30 7 33 18 c35 19 48 18 48 -5z m1790 -50 c0
-14 -2 -25 -4 -25 -2 0 -6 11 -8 25 -3 14 -1 25 3 25 5 0 9 -11 9 -25z m-3328
-32 c16 -15 62 -42 106 -65 21 -10 22 -18 23 -117 4 -306 42 -572 104 -734 26
-66 16 -74 -16 -12 -96 188 -199 538 -199 679 0 25 -4 48 -10 51 -17 10 -12
-187 10 -386 26 -243 59 -469 72 -492 5 -10 7 -21 5 -23 -14 -14 -87 176 -133
341 l-13 50 5 -60 c8 -87 31 -215 59 -330 30 -119 31 -148 5 -81 -52 133 -113
401 -125 551 -9 113 -28 235 -36 235 -9 0 -15 -31 -25 -113 -3 -31 -10 -59
-14 -62 -11 -7 -21 233 -12 295 5 30 15 68 24 84 l15 28 21 -29 c11 -16 24
-41 27 -56 14 -54 23 -25 27 86 3 75 10 125 21 150 17 39 23 40 59 10z m202
-155 c13 -147 16 -224 6 -193 -10 31 -28 136 -37 213 -4 33 -2 42 10 42 11 0
16 -17 21 -62z m-1974 42 c0 -5 -2 -10 -4 -10 -3 0 -8 5 -11 10 -3 6 -1 10 4
10 6 0 11 -4 11 -10z m3967 -20 c98 -34 163 -81 294 -213 123 -122 222 -255
244 -327 4 -14 12 -31 18 -38 5 -7 8 -14 5 -17 -2 -2 -27 31 -55 73 -54 80
-142 174 -129 137 34 -93 51 -133 63 -151 8 -12 25 -74 38 -138 26 -121 33
-281 14 -321 -6 -13 -7 17 -4 90 3 65 1 116 -5 125 -7 11 -10 7 -11 -20 l-1
-35 -7 30 c-4 17 -13 40 -19 52 -7 12 -12 37 -12 55 0 35 -31 148 -41 148 -3
0 2 -37 12 -82 20 -92 25 -183 9 -158 -5 8 -10 27 -10 41 0 42 -78 256 -123
339 -90 167 -213 310 -329 384 -32 20 -58 39 -58 41 0 11 55 4 107 -15z m-137
-28 c77 -37 233 -194 290 -292 45 -75 110 -223 110 -249 0 -11 -3 -11 -15 -1
-18 15 -18 15 -5 -30 27 -92 19 -456 -11 -484 -8 -8 -9 -5 -4 12 9 31 7 254
-3 322 l-8 55 -13 -90 c-7 -49 -15 -114 -18 -143 -3 -29 -10 -55 -14 -58 -5
-3 -7 24 -3 63 6 65 -13 218 -36 290 -5 15 -18 62 -30 103 -47 157 -143 314
-272 443 -48 48 -88 90 -88 92 0 10 69 -9 120 -33z m-1060 -87 c0 -10 -40 9
-44 21 -4 11 0 11 19 -2 14 -9 25 -18 25 -19z m-133 4 c6 -6 21 -16 32 -23 11
-6 139 -90 283 -187 145 -97 306 -201 358 -231 103 -59 223 -118 243 -119 7 0
8 -2 1 -5 -14 -6 -170 54 -263 100 -72 37 -248 152 -351 231 -30 23 -86 64
-125 90 -95 66 -209 155 -198 155 5 0 14 -5 20 -11z m1664 -27 c96 -64 148
-112 210 -195 62 -83 123 -191 117 -209 -2 -6 -12 8 -22 31 -11 22 -23 41 -28
41 -4 0 -8 7 -8 15 0 9 -12 20 -26 25 -20 8 -24 15 -19 33 4 13 3 17 -2 10 -6
-9 -53 32 -158 137 -81 83 -142 150 -134 150 8 0 39 -17 70 -38z m-1860 -308
c30 -287 68 -469 146 -704 55 -166 84 -232 145 -333 58 -96 62 -120 8 -47 -22
29 -40 58 -40 63 0 4 -6 14 -12 21 -35 36 -58 67 -58 78 0 9 -3 9 -12 0 -8 -8
-8 -15 2 -27 8 -9 8 -15 2 -15 -19 0 -24 21 -12 50 10 24 9 35 -4 61 -9 18
-16 38 -16 46 0 7 -9 13 -19 13 -13 0 -21 9 -26 30 -4 16 -11 32 -16 35 -13 9
-11 -8 7 -61 20 -59 13 -67 -11 -12 -10 24 -30 68 -45 98 -34 66 -80 205 -106
318 -10 45 -22 82 -26 82 -34 0 21 -331 84 -510 17 -47 52 -132 79 -189 27
-57 47 -106 45 -108 -4 -5 -86 125 -86 138 0 5 -4 9 -10 9 -5 0 -7 7 -4 15 4
8 1 15 -5 15 -6 0 -10 6 -8 13 1 6 -4 11 -11 9 -9 -1 -11 6 -6 25 4 23 3 25
-6 13 -10 -13 -11 -12 -6 3 8 25 -4 43 -16 26 -5 -9 -6 -4 -2 15 5 20 4 27 -4
22 -8 -5 -10 -2 -6 8 3 9 0 18 -7 21 -8 3 -15 22 -16 42 -1 19 -7 41 -12 46
-6 6 -11 19 -11 29 0 10 -4 18 -10 18 -5 0 -7 7 -4 15 4 8 1 15 -5 15 -6 0
-11 8 -11 18 0 10 -3 22 -7 26 -23 22 -59 213 -79 416 -5 56 -9 69 -15 50 -5
-19 -7 -14 -8 25 -1 50 -25 216 -42 292 -14 65 -12 73 19 73 15 1 43 9 62 20
l35 19 74 -73 73 -73 19 -179z m375 299 c-6 -6 -36 9 -36 18 0 5 9 4 20 -3 10
-7 18 -14 16 -15z m1769 -34 c25 -26 32 -37 18 -30 -12 6 -23 14 -25 19 -1 4
-16 17 -32 30 -16 12 -22 22 -14 22 7 0 32 -19 53 -41z m-2445 -71 c0 -57 3
-114 6 -128 5 -17 3 -22 -3 -15 -14 14 -26 245 -13 245 6 0 10 -41 10 -102z
m-633 -153 c1 -181 9 -348 20 -440 3 -27 2 -47 -2 -43 -11 11 -44 184 -50 268
-10 138 -17 182 -25 174 -14 -16 -30 -102 -30 -163 0 -62 -6 -91 -20 -91 -8 0
-14 20 -24 84 -9 51 -28 57 -21 6 l7 -45 -21 33 c-29 45 -27 67 18 163 21 46
55 119 75 162 27 60 40 78 53 75 16 -3 18 -19 20 -183z m1065 -52 c45 -107
116 -320 129 -386 11 -58 130 -379 170 -459 16 -32 29 -60 29 -64 0 -17 -40
50 -89 149 -30 59 -55 107 -57 107 -2 0 5 -24 17 -52 11 -29 25 -66 31 -83 6
-16 23 -52 38 -80 15 -27 44 -83 64 -123 21 -39 42 -75 47 -78 5 -3 9 -10 9
-16 0 -14 -35 25 -65 72 -35 55 -95 169 -95 181 0 6 -8 18 -17 27 -16 16 -16
16 -10 0 3 -10 2 -20 -3 -23 -6 -4 -10 1 -10 9 0 8 -13 35 -30 59 -16 25 -30
49 -30 55 0 5 -15 43 -34 85 -19 41 -41 98 -50 125 -8 28 -19 59 -25 70 -6 11
-22 75 -36 143 -14 68 -32 156 -41 194 -23 105 -41 224 -35 231 12 12 57 -58
93 -143z m-1751 116 c26 -49 -37 -146 -123 -190 -45 -23 -162 -51 -192 -47
-16 3 -12 7 19 17 132 44 247 134 260 205 8 41 19 46 36 15z m-37 -210 c-32
-35 -126 -89 -152 -89 -4 0 22 20 58 44 36 25 79 56 95 69 45 37 44 22 -1 -24z
m443 -91 c65 -39 129 -142 139 -226 7 -54 5 -52 -51 33 -22 32 -73 94 -112
137 -40 43 -73 80 -73 83 0 10 66 -8 97 -27z m-143 -43 c59 -39 122 -109 171
-190 38 -63 89 -213 83 -241 -5 -18 -5 -18 -13 1 -50 131 -137 265 -247 381
-38 39 -68 74 -68 78 0 14 24 4 74 -29z m3316 -146 c0 -6 -4 -7 -10 -4 -5 3
-10 11 -10 16 0 6 5 7 10 4 6 -3 10 -11 10 -16z m-1457 -154 c67 -130 196
-307 313 -432 48 -50 60 -70 56 -86 -3 -12 -7 -16 -10 -9 -2 6 -10 12 -17 12
-8 0 -17 5 -20 10 -4 6 -3 10 2 9 23 -4 21 4 -11 36 -20 19 -38 35 -41 35 -12
0 -4 -21 16 -41 11 -11 19 -23 16 -25 -10 -10 -138 119 -133 133 3 8 2 11 -4
8 -5 -3 -20 7 -34 22 -35 38 -149 263 -176 348 -12 39 -26 80 -31 93 -5 13 -9
28 -9 35 0 13 2 8 83 -148z m-1395 25 l0 -25 -8 25 c-4 14 -8 34 -8 45 l-1 20
9 -20 c5 -11 8 -31 8 -45z m1027 -359 c4 -12 12 -18 21 -14 18 7 18 -1 0 -16
-11 -10 -17 -6 -29 19 -9 16 -12 30 -7 30 5 0 11 -9 15 -19z m234 -41 c0 -10
-3 -8 -9 5 -12 27 -12 43 0 25 5 -8 9 -22 9 -30z m-159 -88 c0 -15 -2 -15 -10
-2 -13 20 -13 33 0 25 6 -3 10 -14 10 -23z m50 -42 c0 -5 3 -17 7 -27 4 -11
-2 -8 -15 9 -26 31 -28 40 -7 32 8 -4 15 -10 15 -14z"/>
<path d="M7335 11825 c-395 -46 -692 -140 -1084 -346 -134 -70 -444 -269 -551
-353 -146 -115 -530 -511 -632 -651 -4 -5 -18 -23 -32 -40 -41 -53 -172 -257
-213 -335 -22 -41 -61 -113 -86 -160 -41 -77 -79 -161 -139 -315 -28 -71 -112
-317 -137 -400 -29 -98 -48 -188 -72 -350 -56 -383 4 -1001 126 -1305 35 -86
52 -103 75 -75 9 10 31 15 76 15 34 0 65 4 69 9 8 13 -31 33 -58 29 -12 -1
-24 2 -27 7 -8 15 46 18 71 4 20 -10 25 -8 42 15 25 34 77 56 136 56 30 1 41
3 31 9 -8 5 -91 11 -185 14 -178 6 -210 10 -219 32 -4 11 34 13 210 12 210 -2
215 -2 212 18 -3 19 -13 20 -173 27 -93 4 -195 10 -225 14 -50 7 -52 8 -25 15
17 3 121 7 232 8 195 1 202 2 217 23 8 12 13 25 11 29 -5 7 -319 22 -438 21
-31 0 -60 4 -63 9 -3 5 7 9 23 9 231 3 531 12 543 16 8 3 103 7 210 10 434 9
585 15 594 24 12 12 15 11 -154 10 -69 0 -156 4 -195 9 -80 11 -627 15 -754 5
-68 -6 -83 -4 -79 6 2 8 18 18 34 23 16 6 285 12 609 14 556 4 616 7 600 33
-3 5 -40 8 -83 9 -42 0 -162 5 -267 11 -104 5 -343 12 -529 15 -187 3 -342 8
-345 10 -2 3 -2 7 0 9 2 2 315 8 694 11 380 4 701 12 714 17 15 5 21 12 15 18
-6 6 -338 10 -827 11 -472 0 -819 5 -823 10 -5 8 49 14 101 12 11 -1 81 2 155
7 74 5 380 12 680 15 631 6 774 12 812 31 15 8 38 14 53 14 14 0 25 5 25 10 0
13 -41 13 -73 1 -15 -6 -380 -11 -894 -12 -770 -1 -868 0 -871 14 -4 22 112
25 991 32 411 3 754 8 762 12 18 6 19 19 3 30 -7 4 -224 8 -483 8 -1146 1
-1277 3 -1273 23 3 15 25 18 218 24 278 8 852 17 1193 18 175 1 267 5 265 11
-2 7 -111 12 -293 14 -160 3 -346 7 -415 9 -69 3 -206 8 -305 11 -178 6 -211
13 -187 38 10 9 141 13 568 15 423 2 554 6 551 15 -3 8 -43 12 -133 13 -71 0
-192 4 -269 7 -77 4 -261 10 -410 13 -237 5 -301 11 -284 28 2 3 240 8 529 11
289 4 527 9 529 11 3 3 -2 11 -10 20 -13 12 -55 16 -225 19 -115 3 -338 8
-495 11 -158 3 -293 10 -300 15 -11 8 -10 12 5 24 16 12 55 15 190 15 236 0
770 12 775 17 3 2 -3 11 -12 20 -15 16 -64 18 -475 24 -251 4 -532 8 -625 8
l-167 1 -10 -25 c-11 -30 -31 -32 -48 -5 -23 37 -72 19 -72 -26 0 -12 8 -36
17 -53 10 -16 15 -33 11 -36 -12 -13 -72 12 -92 38 -16 22 -18 33 -10 63 5 21
21 46 36 57 25 19 45 20 250 23 123 2 390 6 593 9 204 2 413 5 465 5 62 0 91
3 84 10 -6 6 -171 12 -424 14 -514 6 -820 16 -820 27 0 4 4 10 8 13 7 4 851
19 1130 21 59 0 72 3 70 15 -4 16 -80 19 -938 35 -228 4 -417 9 -420 12 -26
24 202 30 861 24 358 -3 473 2 466 23 -2 7 -65 13 -193 18 -155 5 -861 23
-1099 28 -51 1 -56 3 -35 11 16 7 266 13 663 16 515 5 636 9 625 19 -14 13
-665 34 -1080 34 -215 0 -247 5 -219 33 9 9 186 13 656 17 594 5 642 6 631 21
-10 15 -74 18 -644 24 -457 6 -632 11 -629 19 6 19 435 33 860 28 l397 -5 0
22 c0 20 -4 21 -122 21 -225 1 -508 17 -523 30 -12 10 -15 10 -15 0 0 -8 -24
-10 -92 -5 -120 8 -160 14 -153 24 5 9 48 11 545 20 297 5 345 8 345 21 0 13
-51 15 -390 17 -491 2 -737 11 -732 27 3 8 146 12 520 16 366 4 519 8 527 16
9 9 9 14 0 19 -7 4 -230 13 -495 20 -469 13 -536 18 -520 46 4 5 146 10 353
10 520 2 727 10 727 29 0 13 -31 16 -190 21 -570 19 -576 19 -573 43 3 21 8
21 278 29 384 10 482 17 477 30 -2 7 -13 11 -23 10 -10 -1 -75 2 -144 7 -119
8 -501 23 -640 25 -140 1 -170 5 -170 18 0 21 137 27 593 27 218 0 397 3 398
8 0 4 2 19 3 34 l2 26 -246 2 c-407 4 -700 14 -700 25 1 19 48 23 407 35 448
15 555 22 560 36 3 7 -72 13 -244 17 -575 16 -693 21 -693 28 0 5 10 11 23 13
18 4 652 15 875 16 55 0 62 2 62 20 0 17 -7 20 -47 22 -27 1 -61 3 -78 4 -16
1 -194 5 -395 9 -201 4 -369 11 -373 15 -14 12 203 20 559 20 294 0 343 2 354
15 7 9 11 18 8 20 -2 3 -179 9 -394 15 -214 5 -402 13 -419 17 l-30 7 25 7
c14 4 206 7 428 8 353 1 403 3 409 16 3 9 3 19 0 22 -4 3 -113 9 -244 14 -388
14 -538 26 -538 44 0 11 272 21 617 24 140 1 209 5 214 12 3 6 1 15 -6 19 -17
11 -311 28 -488 30 -74 0 -83 2 -80 18 5 25 113 34 300 25 164 -9 308 -6 308
6 0 4 -62 12 -137 19 -76 7 -183 17 -238 22 -55 5 -149 14 -209 20 -60 5 -112
12 -114 15 -15 15 30 16 255 6 384 -17 493 -17 504 0 21 33 10 39 -73 39 -115
1 -489 17 -570 26 -38 4 -68 11 -68 16 0 6 146 8 368 6 301 -2 372 0 385 11
29 23 19 32 -35 30 -60 -3 -518 10 -592 16 -55 5 -65 10 -49 26 13 13 500 29
641 21 79 -4 95 -2 112 13 11 10 20 22 20 27 0 4 -82 9 -182 9 -101 1 -228 4
-283 8 l-100 6 76 8 c41 5 87 5 101 2 16 -4 37 -1 55 8 22 12 73 16 202 19
167 3 174 4 189 26 l14 22 -103 1 c-57 0 -149 3 -204 5 -55 2 -117 4 -137 4
-27 0 -36 4 -32 13 4 10 38 16 122 20 339 19 426 27 433 39 10 16 -142 24
-414 23 -97 0 -177 3 -177 8 0 4 8 7 18 7 9 0 141 5 292 11 151 5 292 10 313
11 20 0 39 4 42 8 9 15 -114 20 -373 15 -229 -4 -264 -3 -269 11 -3 8 -2 18 1
22 7 6 388 19 618 21 99 1 109 3 135 26 l28 24 -317 1 c-297 0 -350 5 -316 27
7 4 171 10 365 13 306 4 354 7 368 21 15 15 11 17 -52 22 -37 3 -142 6 -233 7
-91 1 -196 5 -235 9 l-70 7 50 11 c31 7 165 12 354 12 274 0 306 2 330 18 l26
18 -35 3 c-19 2 -149 11 -289 20 -167 11 -256 21 -258 28 -7 20 35 22 354 15
323 -6 440 0 248 14 -196 13 -202 23 -17 24 170 1 173 1 162 -19 -12 -22 -7
-25 20 -10 13 7 18 19 16 37 -3 27 -6 28 -67 34 -35 4 -167 7 -292 8 -212 1
-228 2 -225 19 3 16 27 17 340 17 l338 0 26 26 c15 15 24 31 20 37 -3 5 -63
13 -133 16 -144 8 -163 12 -163 31 0 22 21 24 161 15 197 -13 197 -13 224 15
14 13 25 29 25 35 0 6 -43 10 -120 10 -75 0 -120 4 -120 10 0 18 41 27 149 34
68 5 108 12 118 21 15 15 46 8 85 -19 11 -8 26 -12 34 -9 7 3 55 -4 106 -16
51 -11 112 -23 136 -26 23 -4 42 -11 42 -17 0 -5 15 -8 33 -6 26 2 32 0 32
-17 0 -33 14 -45 55 -45 33 0 37 3 33 19 -5 19 5 19 289 23 161 2 310 0 332
-3 38 -7 62 -27 48 -41 -4 -4 -93 -8 -199 -10 -212 -3 -237 -10 -182 -49 32
-22 34 -22 428 -27 250 -3 401 -8 409 -15 35 -28 2 -32 -254 -33 -142 0 -272
-4 -287 -8 -26 -8 -26 -9 -10 -22 13 -9 53 -13 138 -14 66 0 130 -3 143 -6 47
-13 18 -24 -65 -25 -72 0 -84 -2 -65 -12 17 -8 66 -8 180 0 194 13 368 7 376
-13 3 -8 2 -14 -2 -14 -89 -3 -455 -30 -459 -34 -4 -3 11 -13 33 -22 34 -15
79 -17 336 -15 290 2 349 -3 333 -30 -4 -5 -80 -10 -173 -10 -157 -2 -422 -14
-376 -17 12 -1 24 -8 27 -16 4 -11 53 -14 254 -15 274 -1 387 -7 410 -20 23
-12 -123 -21 -364 -21 -116 0 -214 -4 -217 -9 -3 -5 2 -15 11 -22 12 -11 81
-16 287 -21 356 -9 405 -12 422 -30 13 -13 3 -16 -83 -21 -54 -4 -194 -7 -310
-7 -194 0 -252 -7 -190 -24 12 -3 154 -9 315 -13 161 -3 295 -10 298 -15 3 -4
-34 -8 -83 -8 -162 -1 -488 -12 -493 -17 -3 -3 6 -13 19 -24 22 -18 43 -19
362 -19 228 0 340 -3 344 -11 4 -6 5 -12 4 -14 -2 -2 -140 -8 -306 -13 -167
-6 -307 -14 -313 -17 -8 -5 -8 -11 0 -20 8 -9 64 -13 222 -14 116 -1 216 -4
220 -7 5 -3 8 -13 6 -21 -3 -16 -32 -19 -247 -25 -73 -1 -135 -6 -137 -9 -2
-4 2 -12 9 -18 14 -11 81 -14 500 -27 222 -6 290 -15 225 -28 -51 -10 -353
-26 -500 -26 -131 0 -158 -2 -158 -14 0 -8 5 -18 11 -22 6 -3 172 -6 370 -5
217 1 359 -2 359 -7 0 -11 -78 -18 -427 -33 -267 -13 -287 -17 -248 -49 13
-11 87 -12 360 -6 289 5 345 4 345 -7 0 -11 -27 -16 -112 -21 -537 -31 -610
-43 -271 -45 149 0 278 -4 287 -7 23 -9 20 -33 -6 -43 -22 -8 -414 -26 -490
-22 -39 2 -48 -8 -24 -28 21 -18 106 -21 483 -22 333 0 382 -4 358 -27 -4 -4
-99 -8 -212 -9 -113 -1 -210 -6 -217 -12 -6 -5 -90 -12 -186 -16 -96 -4 -177
-9 -179 -11 -2 -2 -1 -9 2 -17 4 -11 81 -15 423 -20 265 -4 421 -10 428 -17 7
-7 -37 -10 -139 -11 -83 0 -163 -2 -180 -4 -16 -1 -137 -4 -267 -5 -227 -1
-238 -2 -238 -21 0 -11 9 -20 23 -23 12 -3 208 -7 435 -9 262 -2 416 -7 423
-14 15 -15 -99 -22 -406 -25 -356 -3 -439 -8 -443 -29 -4 -23 96 -29 498 -29
323 0 410 -4 410 -20 0 -11 -179 -19 -547 -27 -269 -5 -333 -9 -333 -20 0 -8
13 -13 38 -14 173 -3 873 -36 878 -42 4 -4 5 -9 3 -11 -7 -7 -364 -25 -637
-32 -260 -7 -263 -7 -260 -28 3 -21 9 -21 263 -27 143 -4 356 -8 473 -9 194
-3 212 -4 212 -20 0 -16 -17 -18 -172 -23 -95 -3 -186 -5 -203 -5 -16 0 -77
-4 -135 -10 -58 -6 -155 -11 -217 -12 -63 0 -114 -4 -118 -10 -3 -5 -18 -11
-33 -11 l-27 -1 30 -8 c17 -4 96 -8 176 -9 80 0 180 -4 222 -7 76 -7 77 -7 77
-35 l0 -29 -197 -1 c-253 -2 -327 -8 -331 -31 -4 -23 49 -26 482 -32 335 -5
395 -10 373 -32 -9 -9 -98 -14 -411 -22 -193 -5 -260 -10 -264 -20 -2 -6 -21
-15 -43 -18 -22 -4 -41 -9 -43 -13 -2 -3 215 -7 482 -9 439 -2 525 -7 494 -26
-8 -5 -722 -17 -984 -16 -72 0 -88 -3 -88 -15 0 -13 28 -15 188 -15 103 0 246
-4 317 -10 242 -18 260 -19 335 -21 75 -2 -7 -8 -335 -23 -71 -3 -158 -9 -193
-12 -39 -4 -79 -2 -107 6 -33 9 -48 10 -58 2 -7 -7 -46 -15 -85 -18 -51 -5
-72 -11 -72 -20 0 -12 47 -14 258 -14 403 0 886 -12 897 -21 28 -26 -31 -30
-593 -36 -437 -5 -582 -9 -582 -18 0 -17 246 -25 760 -25 356 0 430 -2 439
-14 7 -8 8 -16 4 -19 -4 -3 -152 -9 -328 -13 -176 -4 -333 -8 -350 -10 -16 -1
-146 -2 -288 -3 -202 -1 -258 -4 -255 -13 4 -10 116 -13 509 -15 448 -2 717
-9 707 -18 -5 -5 -616 -26 -953 -34 -256 -5 -280 -8 -283 -23 -3 -17 22 -18
415 -18 559 0 857 -9 840 -26 -11 -12 -422 -24 -829 -24 -402 0 -447 -2 -452
-17 -4 -9 -5 -17 -4 -18 7 -5 506 -25 629 -25 183 0 439 -12 439 -20 0 -14
-313 -25 -620 -23 -314 3 -405 -2 -380 -17 8 -5 177 -9 377 -9 398 -1 516 -6
580 -22 23 -6 61 -8 85 -5 131 20 122 21 156 -18 24 -28 32 -46 32 -75 0 -43
-11 -56 -54 -64 -49 -8 -58 1 -34 33 14 20 19 36 14 54 -8 33 -49 45 -76 21
-17 -16 -20 -15 -42 7 -27 27 3 26 -686 16 -460 -7 -482 -9 -482 -44 0 -11 35
-14 188 -14 103 0 305 -3 450 -7 262 -6 262 -6 262 -28 0 -17 -7 -24 -27 -28
-16 -3 -228 -6 -473 -6 -402 -1 -446 -3 -457 -18 -7 -9 -10 -19 -8 -22 3 -3
52 -6 108 -7 205 -3 702 -17 717 -20 8 -1 39 -3 69 -3 44 -1 51 -3 42 -15 -8
-10 -52 -13 -183 -15 -95 0 -243 -3 -328 -6 -85 -3 -229 -7 -319 -8 -108 -1
-166 -6 -168 -13 -3 -8 138 -13 486 -17 455 -5 546 -11 511 -32 -12 -8 -394
-36 -465 -34 -192 4 -595 -4 -601 -12 -3 -6 -4 -12 -3 -14 2 -2 180 -6 394
-10 215 -4 408 -8 430 -10 22 -2 199 -4 393 -4 302 -1 352 -3 352 -16 0 -35
-26 -36 -828 -30 -683 5 -790 4 -807 -9 -11 -8 -18 -16 -15 -19 5 -5 1475 -31
1580 -29 59 2 92 -10 75 -27 -10 -10 -371 -14 -1253 -11 -254 0 -468 -2 -474
-6 -27 -17 41 -23 292 -24 146 0 405 -7 575 -15 171 -8 391 -15 490 -15 99 0
187 -5 195 -10 10 -6 -201 -10 -605 -10 -341 -1 -640 -3 -665 -6 -25 -2 -70
-7 -100 -11 l-55 -6 40 -12 c30 -10 132 -12 400 -8 391 5 975 -9 1015 -25 17
-7 -82 -11 -330 -15 -195 -4 -454 -11 -575 -16 -121 -5 -232 -10 -247 -10 -16
-1 -28 -5 -28 -10 0 -21 71 -26 360 -28 403 -2 811 -14 805 -23 -11 -18 -277
-28 -743 -29 -214 -1 -273 -4 -270 -13 3 -10 55 -15 189 -19 101 -4 204 -11
229 -17 25 -5 144 -10 265 -11 121 -2 224 -7 229 -12 6 -5 -21 -9 -70 -10 -43
0 -124 -3 -179 -5 -257 -13 -488 -18 -504 -13 -9 4 -24 1 -34 -6 -16 -11 -16
-13 1 -27 14 -13 80 -16 402 -22 212 -4 423 -7 470 -6 86 1 120 -5 120 -21 0
-18 -81 -27 -255 -27 -290 -2 -629 -14 -638 -22 -10 -9 178 -18 559 -25 155
-2 289 -8 298 -11 25 -10 19 -21 -16 -28 -26 -6 -648 -18 -791 -16 -22 0 -28
-4 -25 -17 4 -21 70 -30 229 -32 89 -1 119 -9 119 -33 0 -4 -70 -8 -156 -8
-120 0 -155 -3 -152 -12 3 -9 34 -13 99 -15 80 -1 311 -9 544 -19 33 -1 71 -3
85 -3 15 -1 20 -5 15 -10 -6 -5 -166 -11 -356 -14 -191 -2 -351 -7 -357 -11
-22 -13 0 -34 41 -40 23 -3 119 -6 212 -7 238 -1 408 -10 397 -21 -8 -8 -200
-14 -515 -17 -117 -1 -118 -1 -115 -23 l3 -23 297 -6 c225 -4 301 -9 313 -19
37 -30 -1 -35 -259 -32 -254 4 -371 -3 -331 -19 11 -4 47 -9 80 -10 l60 -3
-75 -6 -75 -6 110 -3 c189 -4 333 -17 357 -33 15 -9 37 -13 62 -10 30 3 37 1
34 -9 -7 -21 -60 -38 -66 -21 -2 8 -8 10 -15 4 -7 -5 -111 -12 -231 -15 -164
-4 -221 -9 -227 -19 -5 -7 -3 -15 4 -19 7 -3 89 -9 182 -13 94 -3 184 -10 200
-14 29 -8 30 -9 8 -20 -14 -8 -83 -12 -202 -12 -116 0 -182 -4 -186 -11 -12
-19 5 -24 88 -26 216 -6 352 -14 361 -23 6 -6 8 -11 5 -11 -2 -1 -102 -4 -221
-8 -119 -3 -220 -9 -224 -13 -4 -4 -1 -14 6 -23 10 -12 45 -15 198 -14 185 0
235 -9 178 -31 -15 -5 -109 -13 -207 -17 -157 -5 -179 -8 -177 -22 2 -11 16
-17 48 -18 188 -10 219 -30 62 -40 -99 -6 -118 -13 -109 -37 5 -14 29 -16 162
-16 85 0 158 -1 162 -2 16 -6 102 141 198 337 131 268 222 531 273 795 53 272
55 292 56 610 0 267 -2 322 -21 440 -54 334 -163 686 -301 970 -63 129 -84
167 -236 414 -165 268 -471 600 -786 853 -373 300 -927 560 -1375 647 -201 39
-652 55 -860 31z m620 -75 c214 -11 255 -17 248 -36 -7 -19 -420 -19 -558 1
-55 7 -139 19 -187 25 -49 7 -88 14 -88 16 0 7 405 3 585 -6z m380 -36 c13 -5
14 -8 3 -15 -20 -13 -38 -11 -38 6 0 16 9 19 35 9z m-2645 -824 c0 -5 -19 -10
-42 -9 -33 0 -38 2 -23 9 28 12 65 12 65 0z m-760 -1230 c0 -28 -20 -34 -88
-25 l-57 7 24 19 c16 13 39 19 72 19 43 0 49 -3 49 -20z m5546 9 c16 -27 -22
-37 -146 -41 l-125 -3 -3 28 -3 27 135 0 c87 0 137 -4 142 -11z m-5711 -329
c-3 -5 -15 -10 -26 -10 -10 0 -19 5 -19 10 0 6 12 10 26 10 14 0 23 -4 19 -10z
m19 -766 c25 -24 19 -34 -21 -34 -84 0 -98 -76 -18 -104 16 -6 17 -9 5 -16
-24 -16 -76 -11 -100 8 -16 13 -22 29 -22 57 0 33 6 45 33 67 46 38 98 48 123
22z m5811 10 c11 -3 30 -19 43 -35 19 -23 22 -35 16 -65 -9 -51 -35 -74 -84
-74 -22 0 -40 3 -40 8 0 4 16 20 35 35 59 47 40 93 -33 81 -41 -6 -56 3 -46
30 8 21 68 32 109 20z m255 -434 c0 -5 -21 -10 -46 -10 -27 0 -43 4 -39 10 3
6 24 10 46 10 21 0 39 -4 39 -10z m-5 -89 c3 -5 1 -12 -5 -16 -13 -8 -50 3
-50 16 0 12 47 12 55 0z m-6285 -71 c11 -7 4 -10 -27 -10 -24 0 -43 5 -43 10
0 13 50 13 70 0z m6223 -127 c-13 -2 -35 -2 -50 0 -16 2 -5 4 22 4 28 0 40 -2
28 -4z m-66 -307 c-2 -6 -22 -11 -45 -11 -304 4 -362 6 -362 15 0 7 72 10 205
9 145 -2 205 -5 202 -13z m-187 -492 c0 -2 -9 -4 -21 -4 -11 0 -18 4 -14 10 5
8 35 3 35 -6z"/>
<path d="M7507 11646 c-4 -10 -5 -21 -2 -24 9 -9 17 6 13 25 -3 17 -4 17 -11
-1z"/>
<path d="M6863 10961 c5 -55 11 -79 27 -96 25 -27 100 -65 126 -65 12 1 4 8
-22 21 -72 35 -105 69 -111 117 l-6 43 37 -15 c20 -8 36 -11 36 -5 0 5 -5 9
-12 9 -7 0 -27 15 -46 33 l-35 32 6 -74z"/>
<path d="M9115 8131 c11 -5 40 -11 65 -14 l45 -7 -34 15 c-18 8 -47 15 -65 14
-25 0 -27 -2 -11 -8z"/>
<path d="M5240 7839 c0 -3 14 -15 31 -28 29 -21 36 -22 157 -16 70 4 162 13
206 21 43 8 95 14 117 14 21 0 41 4 44 10 4 7 -90 9 -274 7 -155 -1 -281 -5
-281 -8z"/>
<path d="M5450 7728 c-35 -5 -66 -11 -69 -14 -3 -2 4 -13 15 -24 18 -18 22
-18 59 -5 22 8 54 14 72 15 41 0 51 17 18 30 -14 6 -27 9 -28 9 -1 -1 -31 -6
-67 -11z"/>
<path d="M10355 6705 c-12 -16 -215 -38 -266 -28 -30 6 -30 5 -27 -28 l3 -34
128 0 128 -1 30 44 c16 23 29 47 29 53 0 14 -14 11 -25 -6z"/>
<path d="M10088 6563 c-22 -3 -28 -10 -28 -29 0 -24 1 -24 96 -24 80 0 99 3
110 18 28 36 18 42 -68 41 -46 -1 -95 -4 -110 -6z"/>
<path d="M10070 6450 c-32 -32 -17 -45 48 -42 57 4 92 22 92 49 0 9 -16 13
-60 13 -46 0 -64 -4 -80 -20z"/>
<path d="M10083 6359 c-28 -10 -44 -40 -33 -60 8 -11 16 -7 46 22 37 38 32 55
-13 38z"/>
<path d="M7568 10523 c7 -3 16 -2 19 1 4 3 -2 6 -13 5 -11 0 -14 -3 -6 -6z"/>
<path d="M7914 10516 c-41 -18 -74 -66 -74 -108 0 -93 121 -174 199 -133 37
19 71 69 71 106 0 29 -45 101 -76 123 -31 22 -85 28 -120 12z m116 -25 c0 -8
-79 -3 -89 5 -2 2 17 4 42 4 26 0 47 -4 47 -9z m-36 -63 c8 -14 7 -22 -6 -35
-16 -16 -19 -16 -38 2 -23 21 -26 41 -7 48 20 9 39 3 51 -15z"/>
<path d="M7960 10410 c0 -5 5 -10 10 -10 6 0 10 5 10 10 0 6 -4 10 -10 10 -5
0 -10 -4 -10 -10z"/>
<path d="M7388 9893 c7 -3 16 -2 19 1 4 3 -2 6 -13 5 -11 0 -14 -3 -6 -6z"/>
<path d="M8220 9870 c0 -6 11 -57 25 -114 26 -106 25 -139 -3 -134 -23 4 -49
54 -76 143 -26 90 -42 85 -26 -7 23 -130 84 -208 139 -179 35 19 36 55 3 159
-17 54 -34 107 -37 120 -6 22 -25 31 -25 12z"/>
<path d="M7766 9623 c-6 -14 -5 -15 5 -6 7 7 10 15 7 18 -3 3 -9 -2 -12 -12z"/>
<path d="M7925 9489 c-76 -10 -171 -63 -240 -133 -77 -79 -141 -206 -103 -206
6 0 19 7 28 15 16 14 20 13 48 -12 46 -43 165 -77 245 -71 107 9 245 86 232
129 -6 17 1 15 47 -12 29 -17 57 -37 61 -45 4 -8 19 -14 32 -14 14 0 25 -7 28
-17 3 -12 5 -10 6 7 1 25 -43 150 -73 208 -59 114 -173 170 -311 151z m45
-174 c38 -19 59 -83 34 -102 -19 -14 -118 -28 -132 -19 -6 3 -8 15 -5 26 4 17
0 20 -25 20 -39 0 -49 16 -25 42 39 45 104 58 153 33z"/>
<path d="M6810 9770 c0 -5 7 -10 15 -10 8 0 15 5 15 10 0 6 -7 10 -15 10 -8 0
-15 -4 -15 -10z"/>
<path d="M8456 8641 c-11 -4 -15 -10 -10 -13 5 -4 18 0 29 8 20 15 12 17 -19
5z"/>
<path d="M7310 8549 c-31 -11 -60 -57 -60 -93 0 -14 14 -41 31 -61 43 -49 88
-49 135 1 52 54 45 118 -16 149 -33 17 -53 18 -90 4z m68 -46 c12 -23 5 -40
-19 -53 -39 -22 -78 27 -47 58 18 18 56 15 66 -5z"/>
<path d="M7225 8091 c-6 -5 -19 -11 -30 -14 -20 -5 -19 -5 1 -6 11 0 29 6 40
14 10 8 14 15 9 15 -6 0 -15 -4 -20 -9z"/>
<path d="M7065 8020 c-3 -5 -2 -10 4 -10 5 0 13 5 16 10 3 6 2 10 -4 10 -5 0
-13 -4 -16 -10z"/>
<path d="M9691 7218 c-1 -9 15 -35 34 -58 38 -46 49 -41 13 6 -12 16 -25 31
-29 34 -3 3 -9 12 -12 20 -4 12 -6 12 -6 -2z"/>
<path d="M5826 7242 c-2 -4 -2 -13 2 -19 10 -15 364 -12 369 3 2 6 -13 14 -34
18 -55 9 -331 7 -337 -2z"/>
<path d="M5746 7118 c-20 -17 -10 -17 231 -18 138 0 258 -3 267 -6 11 -4 16
-1 16 10 0 9 -6 19 -12 21 -7 2 -118 6 -247 7 -211 3 -236 2 -255 -14z"/>
<path d="M5697 7042 c-33 -4 -31 -24 4 -33 13 -4 153 -7 312 -8 264 -1 311 3
277 24 -5 3 -130 8 -277 11 -148 3 -272 6 -278 8 -5 1 -23 0 -38 -2z"/>
<path d="M5645 6950 c-17 -27 16 -30 299 -30 234 0 296 3 305 13 9 12 -18 15
-156 20 -245 10 -441 9 -448 -3z"/>
<path d="M5642 6838 l3 -23 240 3 c241 3 295 7 295 21 0 12 -147 21 -353 21
l-188 0 3 -22z"/>
<path d="M5650 6755 l0 -28 242 7 c134 4 245 10 248 12 14 15 -39 24 -145 24
-66 0 -171 3 -232 7 l-113 6 0 -28z"/>
<path d="M5630 6655 c-27 -33 2 -38 197 -36 145 2 193 6 211 17 12 8 22 19 22
24 0 6 -80 10 -209 10 -176 0 -211 -2 -221 -15z"/>
<path d="M5672 6548 c3 -23 5 -23 146 -21 134 2 182 11 182 33 0 6 -66 10
-166 10 l-165 0 3 -22z"/>
<path d="M5708 6473 c-19 -3 -28 -10 -28 -24 0 -18 8 -19 134 -19 115 0 135 2
140 16 4 9 4 19 1 22 -7 7 -212 12 -247 5z"/>
<path d="M5680 6375 c0 -12 18 -15 104 -15 117 0 148 14 54 24 -106 11 -158 8
-158 -9z"/>
<path d="M5690 6305 c17 -20 155 -20 190 0 23 13 15 14 -89 15 -100 0 -112 -2
-101 -15z"/>
<path d="M4458 6973 c6 -2 18 -2 25 0 6 3 1 5 -13 5 -14 0 -19 -2 -12 -5z"/>
<path d="M9520 6861 c0 -6 4 -13 10 -16 6 -3 7 1 4 9 -7 18 -14 21 -14 7z"/>
<path d="M7640 6602 c0 -6 18 -19 40 -31 41 -21 53 -16 23 11 -23 20 -63 32
-63 20z"/>
<path d="M7837 6509 c7 -7 15 -10 18 -7 3 3 -2 9 -12 12 -14 6 -15 5 -6 -5z"/>
<path d="M7890 6481 c0 -9 30 -24 36 -18 2 1 -6 8 -16 15 -11 7 -20 8 -20 3z"/>
<path d="M7948 6443 c7 -3 16 -2 19 1 4 3 -2 6 -13 5 -11 0 -14 -3 -6 -6z"/>
<path d="M8225 6360 c3 -5 11 -10 16 -10 6 0 7 5 4 10 -3 6 -11 10 -16 10 -6
0 -7 -4 -4 -10z"/>
<path d="M8060 6345 c0 -8 59 -35 77 -35 12 1 6 7 -17 20 -34 18 -60 25 -60
15z"/>
<path d="M9051 6315 c1 -19 18 -51 18 -35 0 8 -4 22 -9 30 -5 8 -9 11 -9 5z"/>
<path d="M9152 6060 c0 -14 2 -19 5 -12 2 6 2 18 0 25 -3 6 -5 1 -5 -13z"/>
<path d="M9210 6451 c0 -6 4 -13 10 -16 6 -3 7 1 4 9 -7 18 -14 21 -14 7z"/>
<path d="M7171 5804 c0 -11 3 -14 6 -6 3 7 2 16 -1 19 -3 4 -6 -2 -5 -13z"/>
<path d="M7770 5570 c0 -5 5 -10 11 -10 5 0 7 5 4 10 -3 6 -8 10 -11 10 -2 0
-4 -4 -4 -10z"/>
<path d="M7795 5540 c-3 -5 1 -13 10 -16 22 -9 29 1 11 15 -10 8 -16 9 -21 1z"/>
<path d="M7110 12912 c0 -5 11 -18 25 -30 13 -12 27 -34 31 -49 8 -33 68 -138
98 -171 12 -13 34 -31 51 -39 40 -21 198 -72 207 -67 10 6 -1 101 -18 153 -21
66 -75 125 -147 160 -77 38 -247 67 -247 43z"/>
<path d="M8075 12913 c-89 -10 -149 -38 -211 -95 -62 -58 -78 -87 -103 -191
-19 -79 -29 -76 112 -39 120 31 177 86 233 226 14 36 35 71 45 77 45 24 14 33
-76 22z"/>
<path d="M8690 12821 c-124 -19 -200 -104 -200 -224 l0 -54 56 15 c80 23 127
69 154 154 12 37 26 70 31 73 5 4 14 15 19 26 12 21 14 21 -60 10z"/>
<path d="M6536 12797 c12 -14 33 -59 48 -100 15 -41 36 -83 46 -92 10 -9 52
-29 94 -45 l76 -28 0 57 c0 43 -7 71 -27 112 -24 45 -37 58 -83 82 -33 16 -81
31 -115 34 l-59 6 20 -26z"/>
<path d="M6904 12713 c-30 -46 -39 -70 -42 -118 l-5 -59 64 -58 64 -57 9 72
c16 127 13 178 -12 230 -13 26 -28 47 -33 47 -4 0 -25 -26 -45 -57z"/>
<path d="M8328 12753 c-41 -46 -63 -143 -47 -205 6 -23 12 -55 13 -71 2 -15 5
-30 9 -33 26 -27 127 86 127 142 0 33 -66 184 -80 184 -4 0 -14 -8 -22 -17z"/>
<path d="M8101 12665 c-35 -76 -43 -104 -42 -150 0 -63 3 -69 49 -120 31 -33
35 -35 55 -22 49 33 62 64 62 150 -1 72 -4 89 -33 144 -18 34 -32 69 -32 78 0
34 -18 10 -59 -80z"/>
<path d="M7110 12728 c0 -13 -13 -59 -30 -101 -16 -43 -30 -91 -30 -108 0 -42
57 -157 82 -165 25 -8 37 4 78 83 l32 62 -16 53 c-18 53 -88 182 -106 193 -6
3 -10 -4 -10 -17z"/>
<path d="M6402 12638 c-28 -28 -7 -78 33 -78 42 0 59 44 29 74 -18 19 -45 21
-62 4z"/>
<path d="M8830 12631 c-15 -29 -13 -39 14 -56 31 -21 66 -5 66 28 0 46 -59 66
-80 28z"/>
<path d="M7379 12452 c-72 -39 -101 -87 -96 -160 6 -85 61 -141 146 -150 47
-4 53 -2 86 31 35 35 41 52 27 74 -6 10 -18 7 -51 -9 -41 -20 -44 -20 -77 -4
-23 10 -40 29 -50 52 -17 41 -11 69 18 85 16 9 24 7 42 -10 30 -29 71 -27 91
3 28 43 2 90 -61 110 -14 4 -39 -4 -75 -22z"/>
<path d="M7805 12469 c-48 -27 -59 -75 -26 -108 21 -21 49 -19 90 8 22 14 25
13 47 -13 34 -39 31 -78 -8 -111 -27 -23 -37 -25 -72 -19 -23 3 -49 10 -58 15
-30 16 -39 10 -36 -23 5 -49 57 -81 124 -76 119 10 177 119 125 235 -32 70
-135 121 -186 92z"/>
<path d="M6775 12268 c-63 -34 -96 -97 -80 -148 21 -66 153 -52 190 20 28 54
18 103 -26 125 -33 18 -57 18 -84 3z"/>
<path d="M8423 12268 c-11 -5 -29 -25 -39 -43 -16 -31 -16 -34 2 -70 25 -51
62 -77 109 -77 84 0 123 78 69 141 -45 54 -94 72 -141 49z"/>
<path d="M6420 12129 c-13 -6 -28 -15 -32 -22 -14 -22 -8 -74 10 -90 25 -23
78 -21 102 3 53 53 -8 137 -80 109z"/>
<path d="M8787 12112 c-38 -42 -5 -112 52 -112 20 0 36 9 50 26 25 32 26 52 5
82 -20 28 -83 31 -107 4z"/>
<path d="M9770 11995 c-19 -23 -8 -50 23 -53 27 -3 57 12 57 29 0 14 -31 39
-49 39 -10 0 -24 -7 -31 -15z"/>
<path d="M5447 11980 c-3 -13 2 -28 16 -40 19 -19 22 -19 39 -3 29 26 19 57
-18 61 -25 2 -33 -1 -37 -18z"/>
<path d="M5447 11903 c-14 -13 -6 -53 12 -63 28 -14 38 -13 61 10 29 29 11 60
-34 60 -18 0 -36 -3 -39 -7z"/>
<path d="M9761 11896 c-19 -23 -9 -49 22 -60 37 -14 62 3 62 40 0 26 -4 29
-36 32 -23 2 -40 -2 -48 -12z"/>
<path d="M5884 11881 c-57 -24 -73 -119 -28 -165 59 -58 164 -14 164 68 0 66
-78 121 -136 97z m74 -63 c18 -18 14 -36 -12 -53 -29 -19 -56 -10 -56 19 0 26
18 46 40 46 9 0 21 -5 28 -12z"/>
<path d="M9312 11877 c-62 -35 -73 -108 -23 -158 39 -38 106 -41 139 -6 34 36
30 100 -7 138 -16 16 -36 29 -44 29 -9 0 -21 2 -29 5 -7 2 -23 -1 -36 -8z m72
-63 c26 -10 20 -53 -8 -60 -32 -8 -46 2 -46 30 0 35 17 44 54 30z"/>
<path d="M3177 8774 c-4 -4 2 -19 13 -34 11 -16 20 -33 20 -39 0 -6 10 -39 21
-73 33 -95 81 -163 141 -202 60 -38 178 -90 229 -101 l34 -7 -21 23 c-33 36
-54 84 -54 122 0 135 -117 268 -269 303 -61 15 -104 18 -114 8z"/>
<path d="M11979 8766 c-59 -16 -124 -55 -171 -101 -38 -39 -78 -134 -78 -187
0 -34 -24 -95 -47 -120 -25 -28 -11 -30 64 -10 131 37 234 105 273 182 10 20
28 74 40 119 11 46 28 94 37 107 l15 24 -43 -1 c-24 0 -65 -6 -90 -13z"/>
<path d="M3653 8509 c-16 -16 -17 -83 -2 -112 34 -65 92 -97 142 -78 36 14 44
51 20 98 -36 69 -130 123 -160 92z"/>
<path d="M11565 8508 c-58 -32 -121 -121 -109 -153 16 -40 118 -48 152 -12 56
60 56 177 -1 177 -12 0 -31 -6 -42 -12z"/>
<path d="M3931 8075 c-26 -30 -31 -44 -31 -85 0 -52 15 -76 54 -86 38 -9 91
19 109 59 22 46 21 75 -3 115 -17 27 -25 32 -59 32 -32 0 -44 -6 -70 -35z"/>
<path d="M11236 8088 c-23 -38 -28 -83 -13 -120 20 -48 44 -68 81 -68 63 0
105 85 72 149 -30 58 -113 81 -140 39z"/>
<path d="M3625 7970 c-11 -5 -37 -9 -58 -9 -76 -2 -119 -31 -200 -138 l-47
-61 83 -7 c167 -14 237 36 262 188 6 39 0 44 -40 27z"/>
<path d="M11626 7961 c-12 -19 4 -88 28 -123 47 -71 118 -94 248 -80 l68 7
-70 81 c-50 58 -82 86 -112 99 -55 22 -153 32 -162 16z"/>
<path d="M3517 7696 c-52 -19 -85 -52 -99 -99 -14 -47 -4 -57 62 -57 68 0 107
28 115 83 13 84 -4 100 -78 73z"/>
<path d="M11692 7683 c-17 -32 -2 -81 34 -113 29 -25 43 -30 89 -30 29 0 56 3
59 8 11 19 -21 96 -52 123 -40 35 -115 42 -130 12z"/>
<path d="M4066 7577 c-35 -46 -56 -100 -56 -145 0 -41 50 -135 95 -181 l24
-25 27 60 c15 32 29 84 32 114 4 52 1 61 -43 133 -25 42 -48 77 -50 77 -2 0
-15 -15 -29 -33z"/>
<path d="M11366 7578 c-3 -18 -8 -62 -12 -98 -7 -80 17 -154 75 -227 41 -51
99 -99 108 -89 10 10 32 138 33 187 0 84 -62 173 -168 241 l-30 18 -6 -32z"/>
<path d="M11150 7548 c-56 -99 -62 -175 -20 -257 26 -53 39 -59 62 -30 52 64
87 184 73 248 -8 36 -50 91 -71 91 -7 0 -27 -24 -44 -52z"/>
<path d="M3862 7569 c-57 -29 -116 -104 -132 -168 -9 -37 -9 -72 -1 -138 6
-48 11 -91 11 -95 0 -42 117 63 155 138 35 69 45 171 23 242 l-13 42 -43 -21z"/>
<path d="M5187 5044 c-4 -4 -7 -67 -7 -141 l0 -133 24 0 c19 0 25 6 28 28 4
40 40 41 84 3 43 -38 80 -44 46 -8 -28 29 -28 35 3 59 22 17 25 28 25 77 0 62
-12 81 -60 99 -36 13 -134 24 -143 16z m141 -60 c25 -17 31 -71 10 -92 -7 -7
-34 -12 -60 -12 l-48 0 0 60 0 60 38 0 c21 0 48 -7 60 -16z"/>
<path d="M9653 5030 c-36 -22 -40 -32 -18 -50 11 -9 19 -8 37 4 28 20 52 20
67 2 20 -24 1 -66 -55 -119 -35 -33 -54 -59 -54 -74 0 -22 3 -23 90 -23 83 0
90 1 90 20 0 17 -7 20 -45 20 -51 0 -55 7 -21 39 49 46 71 126 43 162 -32 42
-85 49 -134 19z"/>
<path d="M9990 5032 c-87 -43 -93 -196 -10 -246 44 -25 78 -20 116 18 32 32
34 38 34 103 0 76 -13 104 -60 128 -36 19 -38 19 -80 -3z m80 -68 c24 -61 3
-144 -36 -144 -26 0 -54 51 -54 99 0 54 13 71 52 71 21 0 31 -6 38 -26z"/>
<path d="M10323 5042 c-35 -4 -73 -46 -49 -55 7 -3 19 -1 27 3 23 15 29 -10
29 -122 0 -98 2 -108 18 -108 17 0 20 13 26 132 7 147 4 156 -51 150z"/>
<path d="M10564 5016 c-38 -38 -43 -70 -19 -115 17 -33 33 -41 82 -41 35 0 35
-1 20 -22 -15 -22 -27 -25 -76 -17 -13 2 -26 -1 -28 -7 -7 -21 28 -44 66 -44
72 0 112 56 113 160 0 56 -15 81 -64 106 -40 21 -57 17 -94 -20z m88 -33 c36
-32 18 -87 -28 -81 -39 4 -56 48 -29 78 22 24 33 25 57 3z"/>
<path d="M4603 5030 c-26 -11 -27 -14 -13 -40 8 -15 17 -18 40 -14 62 13 77
-24 19 -45 -38 -13 -37 -36 1 -50 55 -19 29 -64 -31 -55 -25 4 -39 1 -48 -10
-12 -14 -9 -18 22 -31 20 -8 45 -15 56 -15 69 0 118 82 75 124 -14 14 -14 18
0 38 22 32 20 55 -9 83 -25 26 -70 32 -112 15z"/>
<path d="M4885 5021 c-62 -37 -73 -156 -19 -212 50 -52 120 -51 173 2 28 28
31 36 31 96 0 61 -2 67 -34 99 -28 28 -41 34 -77 34 -25 0 -57 -8 -74 -19z
m112 -51 c56 -52 26 -150 -46 -150 -29 0 -65 47 -65 85 0 40 36 85 69 85 12 0
31 -9 42 -20z"/>
<path d="M5516 5033 c-8 -8 -8 -76 1 -180 l6 -83 88 0 c88 0 89 0 89 25 0 23
-3 24 -67 27 l-68 3 0 35 c0 35 0 35 50 40 45 5 50 7 50 30 0 19 -6 26 -25 28
-14 1 -36 5 -50 8 -23 6 -24 7 -5 14 11 5 39 9 62 9 41 1 63 15 47 31 -11 9
-169 21 -178 13z"/>
<path d="M3548 4500 c-112 -35 -191 -94 -250 -184 -118 -183 -100 -399 45
-553 163 -172 401 -203 585 -76 48 33 102 102 102 132 0 24 -83 101 -122 113
-38 11 -40 11 -81 -28 -52 -50 -85 -64 -145 -64 -86 1 -156 48 -202 138 -32
62 -26 164 14 216 44 58 99 89 164 94 65 4 107 -10 166 -57 45 -36 45 -36 91
-17 44 19 95 71 95 97 0 67 -104 159 -220 193 -69 21 -170 19 -242 -4z"/>
<path d="M4274 4510 c-12 -4 -31 -21 -43 -36 -21 -26 -21 -34 -21 -401 0 -410
1 -417 60 -448 37 -19 64 -19 104 0 56 27 66 57 66 199 l0 126 163 -2 162 -3
0 -132 0 -132 33 -33 c29 -29 39 -33 86 -33 63 0 91 19 106 74 6 21 10 189 10
402 0 357 0 366 -21 388 -58 62 -167 52 -204 -20 -11 -21 -16 -55 -15 -107 1
-42 1 -96 1 -120 l-1 -43 -157 3 -158 3 -5 130 c-3 72 -9 137 -15 146 -24 39
-102 59 -151 39z"/>
<path d="M5318 4504 c-57 -30 -58 -40 -58 -429 0 -335 1 -358 20 -395 35 -69
87 -87 155 -54 64 30 65 40 65 456 -1 277 -4 377 -13 389 -34 45 -118 61 -169
33z"/>
<path d="M5808 4504 c-52 -27 -52 -31 -49 -439 3 -420 2 -414 67 -441 44 -18
96 -10 132 21 l27 23 3 376 c3 423 1 435 -62 461 -44 19 -83 18 -118 -1z"/>
<path d="M7514 4501 c-50 -30 -70 -64 -130 -219 -31 -81 -92 -236 -136 -345
-87 -222 -94 -263 -52 -296 42 -33 90 -37 140 -13 35 17 49 33 74 82 l30 60
160 0 160 0 16 -27 c49 -79 69 -103 101 -118 72 -34 166 7 166 72 0 16 -26 87
-57 158 -32 72 -80 186 -108 255 -134 338 -152 374 -203 396 -49 20 -124 18
-161 -5z m93 -308 c3 -10 23 -59 44 -110 22 -51 39 -94 39 -97 0 -4 -43 -6
-96 -6 -71 0 -95 3 -92 13 11 41 84 217 91 217 4 0 10 -8 14 -17z"/>
<path d="M8210 4513 c-8 -3 -25 -15 -37 -26 l-23 -20 0 -389 c0 -434 0 -437
65 -458 32 -10 64 -9 118 7 38 10 48 64 46 239 -2 107 1 168 8 175 8 8 23 -6
54 -48 80 -109 238 -300 283 -341 40 -37 51 -42 94 -42 47 0 83 16 110 48 9
12 12 109 12 408 l0 392 -30 25 c-56 48 -138 43 -180 -10 -18 -24 -20 -41 -20
-227 l-1 -201 -54 61 c-30 33 -108 130 -173 215 -65 85 -133 164 -152 177 -32
21 -85 28 -120 15z"/>
<path d="M10033 4499 c-18 -11 -36 -34 -42 -52 -6 -20 -7 -169 -3 -404 l7
-373 26 -25 c47 -47 129 -46 174 3 25 27 25 27 25 220 0 109 4 192 9 190 5 -1
64 -70 132 -153 186 -228 201 -244 245 -271 62 -36 117 -33 160 10 l34 34 -1
349 c0 382 -5 437 -38 465 -48 38 -125 35 -167 -7 -24 -24 -24 -26 -24 -225 0
-110 -3 -200 -7 -200 -21 1 -81 71 -285 331 -80 101 -119 129 -180 129 -18 0
-47 -10 -65 -21z"/>
<path d="M11323 4491 c-42 -31 -51 -46 -131 -236 -28 -66 -78 -185 -112 -265
-112 -261 -121 -307 -74 -351 21 -19 36 -24 80 -24 62 0 89 20 133 102 l26 48
152 3 c171 3 160 7 212 -79 50 -82 151 -103 210 -45 37 37 32 71 -33 236 -31
80 -70 179 -86 220 -141 364 -144 372 -201 401 -58 29 -127 26 -176 -10z m146
-400 l39 -111 -95 0 c-86 0 -95 2 -90 18 3 9 22 60 42 112 20 52 38 102 41
110 8 21 16 5 63 -129z"/>
<path d="M6314 4504 c-12 -3 -30 -14 -40 -26 -18 -19 -19 -42 -15 -412 2 -215
7 -399 12 -408 25 -47 112 -61 167 -28 46 28 53 56 46 171 l-7 99 52 0 c29 0
61 -5 72 -10 11 -6 53 -52 93 -103 117 -146 157 -177 227 -177 57 0 119 49
119 93 0 10 -26 46 -58 80 -110 117 -124 150 -77 181 79 52 115 121 115 222 0
96 -30 164 -100 228 -85 76 -132 87 -375 91 -115 2 -220 1 -231 -1z m452 -257
c34 -39 32 -89 -3 -117 -24 -19 -37 -20 -147 -18 l-121 3 -3 84 -3 83 126 -3
c125 -4 127 -4 151 -32z"/>
<path d="M9096 4500 c-64 -12 -95 -72 -75 -144 17 -62 52 -76 197 -76 l122 0
0 -292 c0 -271 2 -295 19 -324 36 -60 134 -69 182 -18 l24 26 5 306 5 307 121
-3 c122 -4 122 -4 153 25 53 47 58 135 10 179 -20 18 -41 19 -373 20 -193 1
-369 -2 -390 -6z"/>
<path d="M7125 3369 c-105 -25 -156 -150 -104 -257 39 -79 134 -118 228 -92
69 18 91 47 91 119 0 73 -14 84 -104 85 -45 1 -61 -3 -69 -16 -16 -24 17 -58
56 -58 22 0 28 -4 23 -16 -3 -9 -6 -18 -6 -20 0 -2 -17 -4 -39 -4 -27 0 -46 7
-65 25 -67 62 4 168 84 125 14 -8 29 -6 54 4 41 17 50 30 37 54 -22 41 -118
67 -186 51z"/>
<path d="M7604 3370 c-117 -27 -174 -139 -125 -245 36 -80 114 -122 208 -112
96 10 123 42 123 148 l0 60 -87 -3 -88 -3 -3 -32 c-3 -30 -1 -32 35 -35 51 -4
53 -32 2 -36 -77 -6 -122 85 -69 138 24 24 62 26 94 5 22 -15 25 -14 62 19 32
28 36 36 26 49 -30 36 -123 61 -178 47z"/>
<path d="M8547 3369 c-114 -26 -171 -153 -117 -259 31 -60 82 -90 155 -90 113
0 184 69 185 178 0 29 -7 66 -15 81 -37 72 -123 109 -208 90z m103 -121 c22
-24 26 -59 8 -91 -26 -50 -69 -60 -112 -26 -20 16 -26 29 -26 61 0 54 22 78
71 78 26 0 45 -7 59 -22z"/>
<path d="M6080 3351 c-13 -25 -13 -271 0 -305 l10 -26 129 0 129 0 31 31 c39
39 41 82 6 119 -23 24 -24 28 -10 40 9 8 15 29 15 55 0 37 -5 48 -35 74 -35
31 -36 31 -150 31 -103 0 -115 -2 -125 -19z m190 -101 c0 -28 -2 -30 -38 -30
-46 0 -51 3 -44 35 4 22 10 25 43 25 37 0 39 -2 39 -30z m25 -110 c14 -23 -17
-41 -64 -38 -39 3 -46 6 -49 26 -3 20 0 22 52 22 30 0 58 -5 61 -10z"/>
<path d="M6564 3357 c-2 -7 -3 -85 -2 -172 l3 -160 133 -5 c74 -3 140 -1 148
3 8 5 14 24 14 47 l0 40 -95 0 c-52 0 -95 4 -95 9 0 18 28 30 80 33 l55 3 3
38 3 37 -66 0 c-63 0 -66 1 -63 23 3 20 9 22 82 27 87 6 104 17 92 63 l-6 27
-141 0 c-105 0 -141 -3 -145 -13z"/>
<path d="M8013 3351 c-53 -33 -83 -87 -83 -151 1 -127 99 -205 226 -178 60 13
108 61 130 132 15 48 16 61 4 95 -15 48 -52 89 -96 107 -50 21 -142 18 -181
-5z m152 -106 c31 -30 32 -66 2 -101 -67 -78 -170 19 -106 100 27 34 71 35
104 1z"/>
<path d="M8931 3356 c-8 -9 -11 -64 -9 -172 l3 -159 44 -3 c50 -4 61 6 61 56
0 27 4 32 23 32 16 0 34 -14 56 -45 30 -41 36 -45 75 -45 66 0 76 20 36 70
l-33 41 20 22 c66 71 52 156 -31 197 -53 25 -226 30 -245 6z m202 -98 c18 -28
-9 -48 -64 -48 -47 0 -49 1 -49 28 0 16 3 32 7 36 14 13 96 2 106 -16z"/>
<path d="M3910 3210 c-210 -5 -225 -6 -228 -24 -2 -10 2 -22 10 -27 7 -5 433
-9 945 -9 l933 0 6 26 c4 17 2 29 -7 35 -15 9 -1264 9 -1659 -1z"/>
<path d="M9660 3202 c-21 -17 -22 -22 -11 -36 12 -15 69 -16 599 -14 541 3
586 4 596 20 7 11 7 21 1 27 -6 6 -245 12 -585 16 -564 7 -576 7 -600 -13z"/>
<path d="M11036 3195 c-3 -8 -3 -22 0 -30 5 -13 40 -15 228 -15 121 0 227 4
234 9 8 5 12 17 10 27 -3 18 -17 19 -234 22 -200 2 -233 0 -238 -13z"/>
<path d="M6382 2723 c-48 -4 -53 -6 -50 -26 2 -17 12 -23 38 -27 l35 -5 5
-100 c5 -92 7 -100 25 -100 18 0 20 7 21 90 1 119 -1 113 42 117 29 2 38 8 40
24 2 17 -4 23 -29 28 -17 3 -41 5 -53 4 -11 -1 -45 -3 -74 -5z"/>
<path d="M7939 2705 c-7 -16 -37 -74 -67 -129 -33 -60 -50 -102 -45 -107 14
-14 38 -2 53 27 12 21 20 24 66 24 46 0 56 -4 70 -25 15 -23 65 -37 63 -17 0
4 -29 63 -63 132 l-64 125 -13 -30z m30 -106 c6 -18 11 -34 11 -35 0 -2 -16
-4 -35 -4 -19 0 -35 2 -35 3 0 12 33 67 40 67 4 0 13 -14 19 -31z"/>
<path d="M8137 2724 c-4 -4 -7 -58 -7 -119 0 -86 3 -115 15 -125 23 -19 35 -2
35 51 0 27 4 49 8 49 5 0 21 -13 37 -30 16 -16 34 -30 41 -30 6 0 24 16 38 35
15 19 31 35 36 35 5 0 10 -28 12 -62 3 -55 5 -63 23 -63 19 0 20 8 23 128 2
118 1 127 -16 127 -10 0 -42 -27 -71 -60 -29 -33 -56 -60 -59 -60 -4 0 -17 15
-30 33 -42 60 -77 98 -85 91z"/>
<path d="M8492 2723 c-22 -4 -23 -6 -20 -131 l3 -127 60 -3 c79 -3 125 22 125
70 0 17 -8 40 -17 50 -13 14 -14 21 -5 30 19 19 14 73 -8 93 -20 18 -93 28
-138 18z m96 -75 c-2 -18 -10 -23 -33 -23 -20 0 -30 5 -31 15 -1 25 6 30 37
30 26 0 30 -3 27 -22z m22 -89 c16 -28 -4 -49 -46 -49 -32 0 -34 2 -34 35 0
33 2 35 35 35 24 0 37 -6 45 -21z"/>
<path d="M4923 2608 c-63 -137 -64 -142 -36 -146 15 -2 25 5 35 25 11 24 19
28 63 31 46 2 51 0 67 -28 18 -32 45 -40 55 -14 7 19 -103 244 -120 244 -7 0
-36 -51 -64 -112z m85 -11 c16 -45 16 -47 -12 -47 -32 0 -38 11 -25 49 14 40
22 39 37 -2z"/>
<path d="M5176 2704 c-3 -9 -6 -64 -6 -124 0 -103 1 -108 22 -113 30 -8 39 8
37 68 0 28 0 55 0 60 1 6 32 -24 70 -65 50 -55 72 -72 80 -64 8 7 11 51 9 130
-3 111 -4 119 -23 119 -18 0 -20 -8 -23 -62 -2 -35 -6 -63 -10 -63 -4 0 -37
29 -72 65 -35 36 -67 65 -71 65 -4 0 -10 -7 -13 -16z"/>
<path d="M5475 2708 c-3 -8 -4 -63 -3 -124 l3 -109 68 -3 c63 -3 69 -1 97 27
27 27 30 35 30 98 0 94 -20 113 -119 121 -56 4 -72 2 -76 -10z m133 -54 c18
-12 22 -25 22 -64 0 -41 -4 -52 -24 -65 -14 -9 -37 -15 -53 -13 -27 3 -28 5
-31 67 -2 35 -1 70 2 77 7 19 56 18 84 -2z"/>
<path d="M5882 2593 l3 -128 90 0 c83 0 90 1 90 20 0 18 -8 20 -62 23 -79 4
-86 14 -82 125 3 79 3 82 -19 85 -23 3 -23 3 -20 -125z"/>
<path d="M6114 2707 c-2 -7 -3 -65 -2 -128 l3 -114 85 0 c80 0 85 1 88 22 3
20 -1 22 -60 25 -60 3 -63 4 -63 28 0 23 4 25 48 28 39 3 47 6 47 23 0 16 -7
19 -44 19 -31 0 -46 5 -50 16 -11 29 13 44 69 44 44 0 54 3 58 19 3 11 2 22
-1 25 -3 3 -43 6 -89 6 -60 0 -85 -4 -89 -13z"/>
<path d="M6687 2713 c-3 -5 -1 -18 4 -31 8 -20 13 -22 43 -17 l34 7 7 -101 c4
-56 12 -104 18 -108 22 -14 38 32 37 107 -1 41 -1 81 -1 88 1 7 14 12 31 12
25 0 30 4 30 25 0 25 0 25 -99 25 -55 0 -102 -3 -104 -7z"/>
<path d="M6946 2594 c1 -96 5 -128 15 -135 25 -16 34 -3 39 52 l5 54 53 3 52
3 0 -56 c0 -53 1 -56 23 -53 21 3 22 6 22 128 0 118 -1 125 -20 125 -17 0 -20
-8 -23 -48 l-3 -48 -52 3 -52 3 -3 48 c-3 44 -5 47 -30 47 l-27 0 1 -126z"/>
<path d="M7239 2683 c0 -21 -2 -77 -5 -125 l-5 -88 91 0 c89 0 91 1 88 23 -3
20 -9 22 -58 22 -52 0 -55 1 -55 25 0 22 5 26 45 30 37 4 46 9 48 27 3 20 -2
22 -45 25 -40 3 -48 6 -48 23 0 17 8 20 58 23 54 3 58 5 55 25 -3 20 -9 22
-85 25 l-83 3 -1 -38z"/>
<path d="M7594 2707 c-2 -7 -3 -62 -2 -123 l3 -109 65 -3 c85 -4 107 2 125 38
15 30 9 70 -14 85 -7 4 -8 12 -2 23 13 25 2 70 -22 87 -28 19 -145 21 -153 2z
m114 -36 c25 -16 10 -46 -23 -46 -25 0 -31 4 -33 28 -3 23 0 27 20 27 13 0 29
-4 36 -9z m27 -121 c0 -22 -5 -25 -42 -28 -42 -3 -43 -2 -43 28 0 30 1 31 43
28 37 -3 42 -6 42 -28z"/>
<path d="M8780 2698 c-20 -14 -39 -39 -48 -65 -14 -37 -14 -45 1 -85 21 -54
59 -78 122 -78 40 0 52 5 81 34 30 30 34 40 34 88 0 60 -16 90 -60 113 -41 21
-92 19 -130 -7z m128 -61 c32 -29 29 -70 -9 -101 -37 -31 -58 -33 -93 -5 -44
34 -34 102 17 124 35 15 52 11 85 -18z"/>
<path d="M9116 2710 c-16 -5 -42 -21 -57 -36 -23 -22 -29 -36 -29 -72 0 -130
144 -183 230 -85 29 33 32 41 28 85 -6 54 -27 84 -75 104 -36 16 -55 16 -97 4z
m95 -69 c37 -37 37 -65 -1 -103 -25 -24 -36 -29 -58 -23 -42 10 -62 34 -62 74
0 41 6 53 35 69 32 18 55 14 86 -17z"/>
<path d="M9717 2712 c-3 -4 -7 -59 -8 -122 -1 -93 1 -114 14 -122 9 -4 18 -5
20 -1 3 5 6 62 8 128 4 105 2 120 -13 123 -9 2 -19 -1 -21 -6z"/>
<path d="M9835 2707 c-3 -7 -4 -64 -3 -127 3 -107 4 -115 23 -115 18 0 20 8
23 73 2 39 6 72 9 72 3 0 37 -34 76 -75 38 -41 73 -72 78 -69 5 3 9 61 9 130
l0 124 -25 0 c-24 0 -25 -2 -25 -65 0 -36 -4 -65 -8 -65 -4 0 -37 29 -72 65
-67 67 -77 74 -85 52z"/>
<path d="M10195 2706 c-88 -38 -96 -175 -13 -226 39 -23 76 -25 122 -6 31 13
34 19 38 63 3 26 3 51 1 56 -2 4 -29 7 -59 7 -47 0 -55 -3 -52 -17 2 -10 10
-19 18 -19 8 -1 21 -2 28 -3 19 -2 14 -29 -7 -41 -25 -13 -64 1 -85 32 -21 30
-20 50 5 83 18 22 28 26 53 22 17 -3 40 -7 51 -9 15 -2 21 3 23 23 5 43 -61
62 -123 35z"/>
<path d="M9492 2687 c-42 -45 -25 -84 51 -117 36 -14 48 -25 45 -37 -4 -18
-29 -21 -88 -12 -20 3 -26 -1 -28 -18 -5 -31 57 -49 114 -34 86 23 81 94 -9
140 -31 16 -47 30 -45 40 4 21 35 26 65 10 20 -11 26 -11 33 1 15 23 12 30
-16 40 -46 18 -99 12 -122 -13z"/>
</g>
</svg>
